<?xml version="1.0" encoding="utf-8"?>
<!-- Generator: Adobe Illustrator 16.0.4, SVG Export Plug-In . SVG Version: 6.00 Build 0)  -->
<!DOCTYPE svg PUBLIC "-//W3C//DTD SVG 1.1//EN" "http://www.w3.org/Graphics/SVG/1.1/DTD/svg11.dtd">
<svg version="1.1" id="Livello_1" xmlns="http://www.w3.org/2000/svg" xmlns:xlink="http://www.w3.org/1999/xlink" x="0px" y="0px"
	 width="512.75px" height="515.91px" viewBox="0 0 512.75 515.91" enable-background="new 0 0 512.75 515.91" xml:space="preserve">
<g>
	<g transform="translate(-361,-50)">
		<path fill="none" stroke="#CCCCCC" stroke-width="0.1" d="M548.813,177.684v1.176h-1.173l0,0l-1.178-1.176l-5.876-3.526
			l-1.175-1.176l0,0l-2.354-1.175l-1.174-1.176l-10.576-8.227l2.35-1.175l-1.176-2.351l0,0l1.176,1.175l1.175,1.176h1.175v1.175
			l1.177,1.176l2.351,2.351l3.523,1.175h2.354l1.175,1.177l1.176,1.174l1.175,1.175l0,0l0,0l-1.175-2.349l0,0v-3.527l3.525-1.175
			l1.175,1.175v2.35l3.527-1.175v1.175h2.35l-1.175-1.175l1.175-1.175v-1.175v-1.176v-1.175h1.177h1.174h5.878v-1.176v-2.35v-1.176
			l0,0h1.175v1.176l0,0l1.175,1.175v1.175l0,0v1.176h1.176l2.352-1.176h1.176l4.701-2.35l1.173,1.175h-1.173v2.351h-2.351
			l1.177,1.175l-3.526,1.176l-2.351,2.351l-2.353,1.175l-1.175,1.177l-4.701,3.525l-3.525,2.351l-2.353,2.351L548.813,177.684z"/>
		<path fill="none" stroke="#CCCCCC" stroke-width="0.1" d="M629.918,158.878l-2.352,3.526v-1.175l-1.176-1.176l-1.177-1.175
			l-4.7,1.175l-3.525,1.176h-3.528l-9.403,2.351v1.175h-3.526l-1.176-3.526l1.176-1.176l-1.176-2.35h2.353v-2.352l0,0v-1.175h1.174
			h1.176h2.351L605.233,153h3.526l-1.175-2.349v-1.176l-1.175-2.351l2.35-1.175v-2.351l0,0v-2.352h1.176v-3.525h2.351v-2.352
			l3.526-1.174l1.177,4.702l2.35,5.877l1.177,2.35v1.175v1.175h1.174l1.176-1.175l3.525,2.352l1.178,2.349l2.351,2.352h1.175
			L629.918,158.878z"/>
		<path fill="none" stroke="#CCCCCC" stroke-width="0.1" d="M561.743,192.964l1.175,1.175v1.175v2.352l0,0l-4.702-1.176
			l-7.052-2.351l-4.702-2.35l-2.348-1.176l-4.703-2.351h1.175l0,0h-1.175v-1.175l-2.354-1.176h-2.351v-1.175l-1.173-1.175v-1.175
			v-2.351l10.58-1.175h2.348h1.178l2.349,2.351l2.35,1.175l1.177,2.351l2.351,2.351l3.526,3.526l1.175,1.176L561.743,192.964z"/>
		<path fill="none" stroke="#CCCCCC" stroke-width="0.1" d="M586.428,254.086v1.175l-1.177,1.175v1.176h-1.175v1.176l1.175,1.174
			v2.352v3.527v2.35l-1.175-1.175l-2.351-2.351l-1.173-1.175v-1.175l0,0l-1.177-1.174v-1.177h-1.177h-1.173l-1.177-1.174h-1.174
			h-1.178l-1.173-1.176h-1.174h-1.177l-1.176-1.176l0,0h-1.173l0,0l-1.176-1.175h-1.175l0,0h-1.176l-1.176-1.175v-2.352v-1.174
			v-1.175v-1.175v-11.755v-1.175v-3.525v-2.352h1.176l3.527,2.352l2.35,1.175l1.177,1.176h1.174v1.175l2.351,1.175h-1.178
			l2.353,2.352l1.177,1.175l1.173,1.176l2.354,3.526l2.35,1.175l2.349,2.352l2.352,3.525h1.176l-1.176,1.176l0,0L586.428,254.086z"
			/>
		<path fill="none" stroke="#CCCCCC" stroke-width="0.1" d="M746.281,324.609v4.701v1.176v3.527v3.525l-1.174,3.525l-1.178,1.176
			l-1.175,1.176l0,0l-1.177,2.352h-1.174l-1.174,1.176l0,0h-1.179h-1.176l-1.174-1.176h-1.177l-1.176-2.352v2.352v1.176
			l-1.176,1.175h-2.352h-1.176h-1.175h-3.524v-3.526v-1.175v-5.877v-1.177l0,0v-2.351v-2.351v-1.176v-2.352l0,0v-2.352v-1.176
			v-1.176v-2.351v-2.351v-2.352v-1.176h3.524h7.052h3.526h2.353l2.351,1.176h1.174l1.179,1.175l1.174,2.351l0,0h1.176l-1.176,3.526
			v1.179H746.281z"/>
		<path fill="none" stroke="#CCCCCC" stroke-width="0.1" d="M564.095,205.895v3.526v7.052v1.175l-1.176,5.876v1.175v4.702
			l-1.175-1.175l-2.35-1.174l-2.352-1.176l-1.175-1.176l-2.351-1.175l-3.527-2.35l0,0l-2.349-1.176l-1.178-5.876l0,0l-3.524-1.176
			l-1.175-1.175l-3.528-1.176l-7.051-1.174l-3.526-2.352h-1.176l-2.351-1.175l-3.526-1.176l-3.526-1.175l-3.525-1.175l-3.526-1.176
			l-2.352-4.702l-1.176-4.701l-1.174-4.702l0,0l-1.176-1.176v-1.175v-1.175l-1.174-1.175v-1.175h14.104l5.877-1.176h10.579v2.351
			v1.175l1.173,1.175v1.175h2.351l2.354,1.176v1.175h1.175l0,0h-1.175l4.703,2.351l2.348,1.176l4.702,2.35l7.052,2.351l4.702,1.176
			l1.176,2.351v1.175v2.351v2.351H564.095z"/>
		<path fill="none" stroke="#CCCCCC" stroke-width="0.1" d="M800.351,191.79v3.525h3.526h1.177v1.176v3.526v1.175h1.175l0,0
			l4.701,1.176l0,0l1.178,1.175h1.174l3.525,1.175l-1.175,4.702l-3.524-1.176v3.526h-2.35v1.175h-4.704l1.175-9.403l0,0h-1.175
			h-4.702h-1.176l0,0l0,0l-1.177,1.175h-2.349l-5.879,1.176h-1.177l-1.172,1.175v1.176v1.176v1.174v1.176v1.175l-1.179,3.527v1.175
			v1.176l0,0l1.179,3.526v1.174l1.172,5.877l0,0l-1.172,10.579v1.176l-4.705,1.175v4.701l-9.401,1.177h-2.351l-3.528,1.175h-3.522
			h-2.353h-1.176l-2.351,1.175h-1.177h-1.178h-2.349h-1.176l0,0l-3.526,1.174l-2.352-1.174h-1.174l-2.353-3.527l-1.177-1.175
			l-1.174-2.351l-1.174-1.175l0,0l-1.179-1.175v-1.176l-2.35-2.35v-1.176l-1.177-1.175h1.177l1.174-1.175h1.176v-1.176l1.179-1.175
			l2.348-1.176l1.177-2.351l1.175-1.174l0,0l2.352-2.352v-1.175l2.352-1.174l1.176-2.352h1.176v-1.175l1.176-1.176h1.176
			l1.176-2.352l0,0l2.352-2.351l1.176-2.351l1.174-1.174l1.178-1.176h1.176l1.176-2.351l1.176-1.176l1.176-1.175l2.349-1.175
			l1.177-2.351l2.352-2.351l2.351-2.352l1.178-1.175l2.351-3.526l2.35-1.176l3.525-1.175l2.352-1.175l3.525-1.176l0,0h2.354
			l4.701,1.176h2.349l0,0v1.175v2.351v1.176h2.348V191.79z"/>
		<path fill="none" stroke="#CCCCCC" stroke-width="0.1" d="M512.376,223.525l-2.35,1.175l1.174,1.176l0,0l0,0h-1.174h-3.528h-1.174
			l-1.176-1.176l-2.352-5.876l0,0l-3.525,2.351l-1.176-1.176l-1.174,1.176l-2.351-1.176h1.176l0,0l-1.176-2.351l0,0h1.176l0,0
			v-1.175v-1.176v-2.351l1.174-2.351v-1.174l1.174-2.352v-2.351v-4.702l0,0l2.351,1.175v1.176l0,0h2.351l0,0l1.178-3.526l4.7,2.351
			h2.352l3.526,1.176l3.525,1.175l3.526,1.175l3.526,1.176l2.351,1.175h1.176l3.526,2.352l7.051,1.174l3.528,1.176l1.175,1.175
			l3.524,1.176l0,0l1.178,5.876l2.349,1.176l0,0l3.527,2.35l2.351,1.175l1.175,1.176l2.352,1.176l2.35,1.174l1.175,1.175v2.352
			v3.525v1.175v11.755v1.175v1.175v1.174v2.352l-3.525-1.175h-2.352l-3.525-1.176l-9.403,2.352h-1.176v-4.701v-1.175v-1.177
			l-1.175-1.175l-1.176-1.175h-1.175l-2.354-2.352l-3.523-2.351v-1.175l-1.175,1.175l0,0l-1.176-1.175l-3.526,2.351l-2.35-4.703
			l-2.353,1.176l1.176,3.526h-2.351v-1.176v-2.35l-1.176-1.176l3.526-1.175l0,0l-1.176-2.351v-1.175h-1.175v-1.176l-2.354-1.175
			l-2.348-1.175l-1.176-1.174h-1.175l-1.174-1.176l-1.177-1.176v-1.173H512.376z"/>
		<path fill="none" stroke="#CCCCCC" stroke-width="0.1" d="M582.902,269.366l-1.177,2.351l-3.527,3.526v1.175l-2.35-1.175v2.352
			l0,0h-1.174l-1.178,1.175l-2.347,2.351l-1.177,1.175h-1.176l-1.173,2.351l-2.351,1.175v1.175l-2.353,1.176v1.175l-1.175,1.175l0,0
			l-1.175,1.175l0,0l-2.352,1.177l0,0l-2.349-1.177l0,0h-1.177l-1.174-1.175l-1.177-1.175l-2.35-1.175l-1.176-1.176l0,0
			l-1.173-1.175l-3.526-2.353l0,0l-3.528-3.525l-2.352-1.175l-1.177-1.175l-3.523-1.177l-1.175-1.175h-1.176l-3.526-19.982
			l-1.176-10.578l1.176-1.176v-2.35l3.526-2.351l1.176,1.175l0,0l1.175-1.175v1.175l3.523,2.351l2.354,2.352h1.175l1.176,1.175
			l1.175,1.175v1.177v1.175v4.701h1.176l9.403-2.352l3.525,1.176h2.352l3.525,1.175l1.176,1.175h1.176l0,0h1.175l1.176,1.175l0,0
			h1.173l0,0l1.176,1.176h1.177h1.174l1.173,1.176h1.178h1.174l1.177,1.174h1.173h1.177v1.177l1.177,1.174l0,0v1.175l1.173,1.175
			l2.351,2.351l1.175,1.175L582.902,269.366z"/>
		<path fill="none" stroke="#CCCCCC" stroke-width="0.1" d="M635.796,248.209h-4.704l-1.174-1.177h-1.176h-3.527h-3.525h-3.525
			h-2.351l0,0h-3.526h-1.175h-3.527l-2.352-2.35l-2.35-1.176l-2.351-1.175l-1.176-1.175l2.353-1.176l1.174-1.175l0,0l3.526-3.527
			l2.35-2.351l0,0h1.176v-1.175l3.526-3.527h1.175l3.527-3.526l2.353,1.176v1.176l3.523,2.35l1.176,2.352l1.176,1.175l2.353,2.351
			l2.35,2.352l1.179,1.175h1.172l1.177,1.175h2.351v1.176l0,0l1.176,2.35v1.176l1.177,3.526H635.796L635.796,248.209z"/>
		<path fill="none" stroke="#CCCCCC" stroke-width="0.1" d="M482.99,335.189v1.174h-1.174l0,0l-1.175,1.177h-2.35h-1.176v-1.177
			h-1.176v-1.174l-1.176-1.176l0,0l0,0l-1.174-1.177v1.177l0,0l-2.353,2.351l2.353,4.702h-1.176h-1.177l-1.176-1.176v-2.352
			l1.176-7.053l1.177-5.877l1.176-3.526h-2.353l-3.525,1.176h-2.352h-1.178l0,0l3.53-1.176l0,0l1.175-1.176l-1.175-1.175v-1.176l0,0
			v-1.176l0,0l-1.177-1.176v-1.176l0,0h-1.175v-1.176l-1.178-1.176l0,0l-1.174-1.175l0,0l0,0v-1.176l0,0l0,0l-1.175-1.175l0,0
			h-1.176v-1.176l-1.175-1.175v-1.176h1.175l-1.175-1.176l0,0l0,0v-1.174v1.174h1.175h1.176l1.175,1.176l2.352,2.351l1.175,1.176
			l2.353-1.176h1.174v-1.175l0,0l0,0l0,0h1.176v-1.176v-2.35v-1.176h1.177v-1.176l0,0h2.35l1.176-1.176l0,0h1.176l2.349-1.176h1.177
			l0,0v1.176l0,0l2.349-1.176l2.354-1.174v-1.176l-1.179-1.175l-1.175-1.175l-2.349-1.177l0,0l-1.177-1.175l8.229-1.175l7.055-1.175
			l3.525-1.176l1.175,1.176v1.175v2.35l2.351,3.527l0,0l2.352,5.877h1.176l1.174,2.351l1.176,4.703h-2.351l1.174,5.876l0,0
			l1.176,3.526l0,0l1.177,1.176l-1.177,1.175l2.352,3.526l1.174,2.351l1.175,2.353l1.177,1.174v2.353l1.174,1.175h1.175h1.176
			l-2.351,1.176l-1.174,1.176h-2.352h-2.349l2.349,5.878v1.175l0,0l2.352,4.702l0,0h-3.526l0,0l-2.352-2.353l-1.176-2.351h-1.174
			l0,0l-1.176-1.175l0,0l0,0v-1.176h-1.174v-1.176l0,0v-1.176l-2.352-2.352l0,0l-1.177-2.352v1.176l-4.7-2.351l0,0h-1.176l0,0
			h-1.175l0,0l0,0l0,0h-1.176v-1.176l-2.35,1.176l-1.177,1.175l0,0l-1.175,1.176L482.99,335.189z"/>
		<path fill="none" stroke="#CCCCCC" stroke-width="0.1" d="M540.586,286.997l-1.175,1.176l-3.527,1.175l0,0l-4.7,1.175h-1.177
			l-2.35,1.175h-2.35l-2.353,1.177l-1.175-2.352l-1.176-2.35h-1.178h-1.174l0,0h-1.174v-1.176h-1.176v1.176l-1.175,1.175
			l-3.526-3.526l-2.349-3.526l2.349-1.175l2.352-1.176h2.35l-3.526-7.052l2.351-2.35l2.351-3.527l5.877,3.527v1.175h2.353l0,0
			l5.876,3.526h1.176l1.175,1.175l3.523,1.177l1.177,1.175l2.352,1.175l3.528,3.525l-2.352,2.353L540.586,286.997z"/>
		<path fill="none" stroke="#CCCCCC" stroke-width="0.1" d="M572.323,339.891L572.323,339.891l-3.527,2.352l-2.349,1.176h-1.175
			l-1.176,1.175h-2.352v1.177h-1.175h-1.175l-2.352,1.176l-1.175,1.175l-2.351,1.176l-3.527,1.176h-1.176l-4.7,2.351l-2.352,1.176
			h-1.176l-2.352,1.177l-1.177-1.177l-2.351,1.177l-2.348-5.878h1.175l0,0l0,0v-1.176h-1.175l0,0l-1.176-4.701v1.175l-1.177-7.052
			h-1.175l-1.175-1.176l0,0l0,0l-1.176,1.176h-1.174h-1.177l0,0l0,0l-1.176,1.175l0,0v1.177v1.176l0,0h-1.175v1.175H520.6l0,0v1.176
			l-1.178,1.175v-1.175l-1.174,1.175l-1.174,1.176l0,0l0,0l0,0h-1.176l-1.175-1.176h-1.174v-1.175l-1.177-1.176l0,0h-1.175v-1.175
			l-2.349-5.877h2.349h2.352l1.174-1.176l2.351-1.177l2.348-2.351h1.178l3.526-1.176l2.351-1.176h3.525l2.353-1.176l4.698-1.176
			l2.354-1.176l0,0l2.351-1.176l0,0h1.175l2.35-1.175l0,0h1.175l1.178-1.176l0,0h2.349l1.175-1.176l2.353-1.175h3.525l3.526-2.352
			h2.35l1.176,2.352v2.351l1.176,1.177v1.174l0,0l1.175,1.176v2.352h1.176l1.173,2.352v2.352l1.176,2.352v1.176l1.177,1.175l0,0
			L572.323,339.891z"/>
		<path fill="none" stroke="#CCCCCC" stroke-width="0.1" d="M605.233,342.241v1.176h-1.174h-2.35l-9.404,3.526l-2.352,1.175
			l-2.351,1.176l-4.7,1.176l-4.704,1.176l-1.173,1.175h-2.352l-3.525,1.176l-3.526,2.351l-14.105,5.877h-2.353l-2.351,1.178
			l-4.7,2.35l-2.352-3.526l-1.176-1.175l-1.175-3.524l0,0l-1.177-1.178v-1.174l2.352-1.177h1.176l2.352-1.176l4.7-2.351h1.176
			l3.527-1.176l2.351-1.176l1.175-1.176l2.352-1.176h1.175h1.175v-1.176h2.352l1.176-1.175h1.175l2.349-1.176l3.527-2.351h2.351
			l1.174-1.177l0,0l2.35-1.175l0,0l1.177-1.176l3.527-1.176h1.174l1.175-1.176l2.352-1.176l0,0h1.176l1.175-1.175l2.352-1.176l0,0
			l2.351-1.177h1.176h1.176v-1.174l3.525-1.177h1.177l0,0l1.174,2.351h1.176l1.174-1.174l1.176,4.7h-2.351l1.174,2.353l0,0v1.175
			l1.176,2.351l0,0l0,0l1.175,3.526h-2.352V342.241z"/>
		<path fill="none" stroke="#CCCCCC" stroke-width="0.1" d="M635.796,358.698v3.523l0,0v2.353l-1.178,1.175l-1.177,3.527h-8.228
			l-2.351,1.174h-3.525h-2.35h-1.177l0,0h-2.351h-1.175h-1.175h-1.176h-2.351h-1.175l0,0h-1.176h-1.174v-1.174l-2.35-2.353
			l-1.177-2.351l-2.351-2.353l-1.175-1.175l-1.176-1.175l-2.35-2.352v-1.177l-3.528-7.052v-1.176l2.352-1.176l9.404-3.525h2.35
			h1.174l2.352,1.175l0,0l0,0h1.175l1.176,1.177l1.176,1.176l1.175,1.175v1.176h1.175v1.176l2.351,1.176l1.177,2.351h2.35
			l1.176,1.177h1.174h1.176h1.176h3.527l0,0l8.229,1.174V358.698L635.796,358.698z"/>
		<path fill="none" stroke="#CCCCCC" stroke-width="0.1" d="M604.059,369.276v1.174h-1.176h-1.174h-2.353h-1.175l-2.351,1.176
			h-1.176l0,0h-2.351h-1.176l-1.176,2.352l-2.351,2.352l-2.352,2.351l-1.175,1.177v1.175l-1.174,1.176l0,0l0,0v1.175l-1.177,2.353
			l-1.173,2.351l-2.354,3.526l0,0l-2.35-2.352l-1.174-1.176l0,0l-2.351-4.702l-1.174-1.175l-1.177-1.176l-2.35-1.175l-1.176-1.177
			l-1.175-1.176v-1.175l-1.176-2.351h-1.176v-1.177h-1.175l-4.701-2.352l0,0l-4.703,3.526l0,0v2.352l3.528,8.228v1.177l-7.054-8.229
			l-1.173-1.175l0,0l0,0h1.173v-1.177h1.176l0,0h-1.176v-2.351l-1.173-3.524l-1.178,1.174l-2.348-4.701l4.7-2.35l2.351-1.178h2.353
			l14.105-5.877l3.526-2.351l3.525-1.176h2.352l1.173-1.174l4.704-1.177l4.7-1.176l2.351-1.176v1.176l3.528,7.052v1.178l2.35,2.351
			l1.176,1.175l1.175,1.175l2.351,2.353l1.177,2.351L604.059,369.276z"/>
		<path fill="none" stroke="#CCCCCC" stroke-width="0.1" d="M633.441,369.276l1.177-3.527l1.178-1.175v-2.353l0,0v-3.523v-2.354
			h2.349h3.53h2.347l2.353,1.178l2.351-1.178h2.353l2.351-1.174h1.178l2.349-1.177h1.176l1.173-1.176h1.178l1.176-1.175v5.878v1.176
			v4.701v1.175v1.175v4.701H659.3h-1.173h-3.523h-2.354h-1.175h-1.177h-1.176h-2.351h-1.175v-1.174h-1.178h-1.174h-3.527h-2.352
			h-1.173L633.441,369.276L633.441,369.276z"/>
		<path fill="none" stroke="#CCCCCC" stroke-width="0.1" d="M533.534,180.035h-10.579l-5.877,1.176h-14.104l0,0v-1.176v-1.175l0,0
			v-1.176h-1.178l-2.351-8.229l0,0l0,0l0,0h1.177l-1.177-2.351l4.702-3.525l-2.352-2.351l3.527-2.351l-2.35-2.351l-2.352-1.176
			v-1.175L499.446,153l0,0v-2.349l2.351-2.352l-2.351-1.175l1.177-2.35l3.525,1.174l5.878-7.051v2.349l3.526-1.175l1.174,1.175
			l-2.351,2.352l1.177,2.351h-1.177l-3.524-2.351v2.351h-1.177h-2.351l2.351,2.351l1.177,2.352l0,0l-1.177,1.175l0,0h-1.176l0,0
			l1.176,2.351h2.352l0,0l1.174-1.176h1.175l0,0l1.177,1.176v1.175l1.174,1.176l1.175,3.526v1.176l0,0l1.176,2.351v1.175v1.175
			v1.175l1.174-1.175l-1.174-1.175l5.877-3.526l1.176,1.175h1.177l10.576,8.227l1.174,1.176l2.354,1.175l0,0l1.175,1.176
			l5.876,3.526l1.178,1.176h-1.178h-2.348L533.534,180.035z"/>
		<path fill="none" stroke="#CCCCCC" stroke-width="0.1" d="M600.532,188.263l1.177,2.351l1.174,2.351h-2.351h-1.176l-1.175,1.175
			l-1.175,1.175l-1.176,1.176l-3.526,3.526l-2.352,1.175l-1.175,1.176l-2.351,1.175h-1.177h-1.175H582.9h-2.35l-4.704-1.175
			l-4.7-1.176l-8.23-3.526l0,0v-2.352v-1.175l-1.175-1.175l-1.175-1.175l-1.175-1.176l-3.526-3.526l-2.351-2.351l-1.177-2.351
			l-2.35-1.175l-2.349-2.351l0,0h1.173v-1.176l2.351-1.176l2.353-2.351l3.525-2.351l4.701-3.525l1.175-1.177l2.353-1.175
			l2.351-2.351l3.526-1.176v3.526h2.347h1.178v2.352l4.701-1.177h1.177h2.35l-1.177-3.525h3.525l0,0l2.352,4.702l3.526,4.7
			l2.353,3.526l1.174,2.352l1.176,2.351l1.176,1.175v1.175l1.175,1.175L600.532,188.263z"/>
		<path fill="none" stroke="#CCCCCC" stroke-width="0.1" d="M652.25,198.842l2.354,4.702l-5.879-1.175l-2.352-1.176h-1.175
			l-3.523-1.175h-3.53l-1.176-1.175l-9.4-1.175l-14.106-3.527h-1.175v-2.35l1.175-1.176v-2.351l1.175-1.175l1.176-1.176l1.177-1.175
			l2.35-4.702l3.525-5.877l1.175-2.351l0,0l1.176-1.176l0,0l1.177-3.526l1.176-4.701l2.352-3.526l1.174-3.527l1.18,2.352
			l1.172,1.175l1.176,1.175l1.178,1.176l1.174,2.351l2.352,1.175l2.354,2.35l1.172,1.177l1.174,1.174v1.175l1.179,1.176v1.175
			l1.175,3.526l1.175,9.403l1.177,3.526l1.174,5.877l1.178,1.176v2.351H652.25L652.25,198.842z"/>
		<path fill="none" stroke="#CCCCCC" stroke-width="0.1" d="M779.193,189.438l-2.351,1.176l-2.35,3.526l-1.179,1.175l-2.35,2.352
			l0,0l-2.352,2.351l-1.178,2.351l-2.349,1.175l-1.175,1.175l-1.176,1.176l-1.176,2.351h-1.177l-1.177,1.176l-1.174,1.174
			l-1.176,2.351l-2.352,2.351l0,0l-1.176,2.352h-1.176l-1.176,1.176v1.175h-1.176l-1.176,2.352l-2.352,1.174v1.175l-2.353,2.352l0,0
			l-1.174,1.174l-1.177,2.351l-2.349,1.176l-1.178,1.175v1.176h-1.176l-1.175,1.175h-1.176l-1.176-1.175l-2.352-4.702l-2.353-2.35
			l0,0h-1.174l-1.174-1.176l-2.353-1.176h-1.177l-1.173-1.175l-2.352-1.174l-1.178-1.176l-2.353-1.176l-1.175-1.175v-1.176l0,0l0,0
			l-1.174-1.175l0,0l-1.176-1.176v-1.174l1.176-1.176v-2.351h1.174v-1.174h1.175l0,0l1.177-1.176h1.176h1.178h1.172l1.18-1.176h2.35
			h1.176h1.177l1.174,1.176h1.174h1.177h1.176l0,0h1.176h2.352l1.176-1.176h1.175h1.176h2.353l1.174-1.175h2.351h2.353v-1.176h1.176
			l2.352-1.175l2.352-1.175l1.176-1.176l1.176-1.175l3.526-2.351l0,0l5.878-3.527l0,0v-1.175h1.175l1.177-1.175h1.172l3.528-1.176
			h2.351l1.178-1.176l0,0l0,0h1.175l0,0h3.528V189.438z"/>
		<path fill="none" stroke="#CCCCCC" stroke-width="0.1" d="M683.984,370.45v1.176v1.176h-1.176l0,0h-1.174l-1.176-1.176l0,0l0,0
			l-1.178-1.176l0,0h-1.174h-2.351h-3.526h-5.877h-1.176h-3.527v-4.701v-1.175v-1.175v-4.701v-1.176v-5.877h1.178h2.351h1.177h3.525
			l3.525-1.177h7.053v4.702l1.176,4.701v1.175l1.174,2.353v2.35v1.176v2.353L683.984,370.45z"/>
		<path fill="none" stroke="#CCCCCC" stroke-width="0.1" d="M776.844,168.282v1.174v1.175h1.176l2.35,2.351l1.177-1.175v1.175
			l2.351-2.351h-1.177v-1.175l0,0l0,0v-1.174h1.177v1.174l0,0l0,0l0,0v1.175l0,0h1.176l0,0v-1.175h1.175l0,0l0,0v-1.174l1.179,1.174
			v1.175l0,0v1.176h1.172v3.526h1.177l-1.177,3.527h1.177l-1.177,1.175h3.529l1.174-1.175h7.053l0,0v-1.176v-1.176l0,0v1.176l0,0
			l0,0v2.351v1.176l-1.176,5.876h-1.177l0,0h-2.349l-4.701-1.176h-2.354l0,0l-3.524,1.176l-2.352,1.175l-3.525,1.175h-3.524l0,0
			h-1.175l0,0l0,0l-1.178,1.176h-2.35l-3.529,1.176h-1.172l-1.177,1.175h-1.175v1.175l0,0l-5.878,3.527l0,0l-3.526,2.351
			l-1.176,1.175l-1.176,1.176l-2.352,1.175l-2.352,1.175l0,0v-1.175l-1.176-2.351v-2.351l-1.174-1.175l0,0v-1.176v-1.176
			l-2.353-4.701v-2.351l-1.177-2.351l-1.174-4.701l-3.527,1.175v-1.175l8.23-2.351l-1.18-4.702l3.527-1.176v-1.175l5.878-2.351
			l3.526,1.175h1.176l0,0h1.174v1.176h1.177l2.353-1.176l1.176-1.175l2.352-1.174h1.172v1.174l2.354-1.174h1.176h1.176h1.174
			l2.354-1.177h2.352L776.844,168.282z"/>
		<path fill="none" stroke="#CCCCCC" stroke-width="0.1" d="M653.426,231.753L653.426,231.753v1.175l-1.176,1.176v2.35h-1.175v3.526
			l0,0l1.175,4.703v1.175v1.175v2.352l-4.702-5.878l-2.35-1.175l-2.353-1.175h-1.172l-2.354-1.176h-2.353h-2.351l-1.176-1.175
			h-1.172l-1.18-1.175l-2.35-2.352l-2.352-2.351l-1.177-1.175l-1.176-2.352l-3.524-2.35v-1.176l-2.352-1.176l3.525-3.525h1.176
			h1.175l0,0h1.176l0,0h1.177l1.176,1.176l2.352,1.174l1.174,1.175l1.18,1.176h1.172h1.176h1.178l1.174-1.176h2.352h2.354h2.346
			h2.354h1.175h1.177l2.352-1.175h3.527h1.174l-1.174,2.351l-1.178,3.526V231.753L653.426,231.753z"/>
		<path fill="none" stroke="#CCCCCC" stroke-width="0.1" d="M723.95,337.54v5.877v1.175v3.526h-4.701h-1.178h-1.175l-5.875,1.176
			h-3.528h-2.351l0,0h-1.176l0,0l-1.175-1.176l-1.177-1.175l-1.174-1.176l0,0v-1.177l2.351-2.351v-1.176v-1.176l2.351-2.351v-2.351
			l1.174-1.176l1.177-1.177v-1.175h1.178v-2.352h1.177l0,0l1.176-1.176l-1.176-1.176l1.176-1.176l0,0v-1.176l1.174-2.351v-2.352
			v-1.175l0,0v-4.703h1.176l3.523-1.176h3.524h3.529v2.353v1.176v2.351v2.352v2.352v1.176v1.175v2.353l0,0v2.351v1.176v2.351v2.352
			l0,0V337.54L723.95,337.54z"/>
		<path fill="none" stroke="#CCCCCC" stroke-width="0.1" d="M792.125,382.205l-3.529,2.351l0,0l-2.351,2.353h-2.352l-1.176,2.351
			l-2.351,2.352l-4.699,3.526l-1.175,1.174l0,0l-1.179,1.177h-1.174l-1.176,1.176l4.702,4.702l0,0v1.176h-1.175l-4.703,2.35
			l-3.525-2.35h-2.351l0,0h-1.177l0,0l-2.352,1.175l0,0l-2.351,2.352l-2.354,1.176l-3.523,4.701l-2.352-2.351l1.176-4.703
			l1.176-8.228v-3.525v-3.526v-2.352l-1.176-3.525v-1.177l0,0l-1.176-3.525l5.875,3.525h1.178l1.177,1.177l2.351,1.176l1.176,1.175
			l1.176,1.176l0,0l2.352,1.176l1.176-1.176l1.174-1.176l2.353-2.351l1.176-1.177h1.177l1.174-2.351l1.178-1.176l1.175-2.352
			l1.175-2.351l1.176-1.177l7.052,3.526L792.125,382.205z"/>
		<path fill="none" stroke="#CCCCCC" stroke-width="0.1" d="M747.457,295.225L747.457,295.225v4.701v1.176v8.228v2.352v2.351v5.877
			h-1.176l0,0l-1.174-2.351l-1.179-1.176h-1.174l-2.351-1.176h-2.353h-3.526h-7.051h-3.525v-2.352v-3.525v-2.351v-1.175l0,0v-1.176
			v-3.526v-1.176v-1.176v-3.525h1.175h3.524l0,0h1.176H731l0,0h2.352h1.176h1.177h1.174l0,0h1.176h1.179l2.348-2.351l0,0h1.177
			l2.353-1.177l0,0h2.35v1.177v1.175v1.176H747.457z"/>
		<path fill="none" stroke="#CCCCCC" stroke-width="0.1" d="M741.579,292.875L741.579,292.875l-2.349,2.351h-1.178h-1.176l0,0
			h-1.174h-1.178h-1.174h-2.353l0,0h-1.175h-1.178l0,0h-3.523h-1.175v-1.175v-1.175v-4.702v-1.176v-2.35v-1.177v-1.174v-1.175
			v-1.176v-2.35v-1.177l-1.177-1.175v-1.175v-2.352v-1.175v-1.176v-2.351v-2.351v-1.175v-2.35v-3.527v-2.351v-3.526h2.352h1.177
			h1.175h1.174h1.177H731h1.176l1.176-1.174h3.525l0,0l0,0h3.527h1.174h1.177h2.353v2.351l1.174,1.175l1.176,1.175v1.175v1.176
			l1.176,3.527v8.227v3.526v1.176v2.35v2.352v2.351v1.175l-1.176,3.526v2.351v3.525h-2.35l0,0l-2.353,1.177L741.579,292.875
			L741.579,292.875z"/>
		<path fill="none" stroke="#CCCCCC" stroke-width="0.1" d="M588.778,291.698v1.177h1.175v1.175v1.175l0,0v2.35h-1.175h-1.176l0,0
			h-2.352l-2.349-1.174h-1.177h-1.173h-1.177h-2.35l0,0h-2.352h-1.178h-2.347h-1.177l-4.701-1.176h-2.353l-2.35-1.175l-2.352-1.175
			l0,0l2.352-1.177l0,0l1.175-1.175l0,0l1.175-1.175v-1.175l2.353-1.176v-1.175l2.351-1.175l1.173-2.351h1.176l1.177-1.175
			l2.347-2.351l1.178-1.175h1.174l0,0v-2.352l2.35,1.175v-1.175l3.527-3.526l1.177-2.351l2.349-1.176v3.526v1.175v2.351v1.175v1.177
			l1.177,2.35v1.176l1.175,1.175v3.526l0,0l1.176,2.351v1.175v1.175v1.176H588.778z"/>
		<path fill="none" stroke="#CCCCCC" stroke-width="0.1" d="M796.825,352.819v3.525v1.178l0,0v1.176v4.701l1.174,1.175l0,0l0,0
			l-1.174,1.175v3.527l-1.175,1.174v1.176v2.352l1.175,1.175l0,0l-1.175,1.177l0,0h-1.178v1.175l-1.175,2.352l0,0l-1.174,2.352l0,0
			l-7.055-3.526l-7.052-3.526v-2.351l1.174-4.701l1.176-2.352v-3.526l1.177-3.523v-3.526l1.174-1.177v-4.701l1.177-2.352v-1.176
			v-2.351l-1.177-1.176v-1.175v-1.176l-1.174-1.177l0,0l-4.701-8.228l-3.526-7.053l-1.174-2.352v-1.176l-1.177-2.352v-1.175v-3.526
			v-2.351h2.351h3.526h3.524h8.228h17.632l1.177,2.351h-1.177h-3.524l1.175,3.526l-1.175,1.175h-1.176v1.176l-5.876,1.176
			l-2.353,1.176v3.525h-1.174v1.176l0,0l0,0l1.174,5.878l1.175,1.175l0,0v1.176l0,0h-1.175l1.175,1.176v1.176l0,0h1.178h1.175
			l-1.175,1.176l2.349,1.175l0,0v1.177l0,0v2.35l-1.174,1.177v2.351v2.352v1.176V352.819L796.825,352.819z"/>
		<path fill="none" stroke="#CCCCCC" stroke-width="0.1" d="M706.316,144.774l-2.35,5.876l-1.174,2.35l-2.352,7.053l-1.174,2.351
			l-1.179,2.351l-1.175,2.35l-1.175,4.702l0,0l-1.175,2.351l-1.178,2.351l-1.174,3.526l-1.177,2.351l-1.175,4.702l-1.178,2.351
			l-1.174,2.352v1.175v1.175h-1.175v1.175v1.176l-1.177,2.351l-1.176,1.175l0,0v1.175l-1.176,2.351v1.175l-2.351,4.702l-1.178-1.176
			h-1.173h-1.176l-3.526-1.176h-1.175h-1.176h-1.176l-7.053-2.351h-2.352l-3.526-1.175v-4.702l-4.701-1.175v-1.176l1.177-9.403
			l2.351-2.351l1.175,1.175v-1.175l-1.175-1.175v-1.175l-1.175-1.175v-1.176l-1.176-1.175v-1.176l1.176-1.176h1.175l1.175-1.175
			l1.176-1.175l0,0v-3.527l-1.176-1.175l-1.175-2.351h1.175l-1.175-5.876h1.175l3.525-1.176l0,0l3.526-1.175l0,0l-1.175-3.527
			L665.18,153h4.702h3.525h3.526h1.176h1.173l3.526,1.176v1.175h1.176h1.177v-1.175h1.177l-2.354-5.877v-1.175l-1.176-2.35
			l2.353-1.177v3.526h1.177v-1.175h1.174l0,0h3.526h1.177l1.173,3.526l2.354-1.175l0,0h1.175h2.354l0,0l0,0l0,0h1.174h2.352v-2.351
			v-2.351l0,0h2.352v1.177H706.316z"/>
		<path fill="none" stroke="#CCCCCC" stroke-width="0.1" d="M672.232,392.784v5.877h-4.703v1.176l-1.174-1.176l-2.353,1.176
			l-2.353-2.352l-3.524,2.352l-2.351-3.527l-1.174,1.177l-1.178-2.351l-3.527,2.351v1.176v1.176v3.526v3.524h-3.524h-1.175v-1.175
			h-1.178v1.175h-4.701h-1.176l-1.176-2.35h-4.697l0,0l-1.18,7.053h-1.174l0,0h-3.527h-1.176l1.176-3.526l1.178-2.352l-3.528-1.175
			l-1.175-2.353l-1.176-1.176l-1.175-1.175l-1.176-1.176l-3.526-1.176l2.351-4.701l1.176-1.176l1.176-2.352l1.174-1.176l2.352-2.352
			l1.176-1.176l2.354-2.351l1.175-2.352l1.176-2.352l1.174-2.352l2.351-5.875h2.354h1.173h2.353h3.526h1.174h1.178v1.174h1.175
			h2.351h1.176h1.177h1.175h2.354h3.523h1.173h2.354h3.526l0,0l1.176,1.176l1.176,2.352l1.177,1.175l1.175,3.526l1.176,2.352
			l1.176,3.525l1.175,2.353l1.176,1.175l1.177,4.702h-3.533V392.784z"/>
		<path fill="none" stroke="#CCCCCC" stroke-width="0.1" d="M694.564,285.822L694.564,285.822v2.351v1.175v3.526v1.175v1.175v2.35
			v1.176v1.176l1.176,2.352l0,0v2.35v2.351v2.351v3.525v1.176l-1.176,1.176v1.176l-1.178,1.176v2.351h-1.173l-1.177,3.526
			l-1.175,3.525v1.176l-1.177,1.176v1.176l-1.176,2.351v1.177l0,0l-1.174-1.177l-2.354-1.175h-1.176v-1.176h-1.174l-1.176-2.352
			h-1.178l-3.523-3.525l0,0l-1.176-1.176l-2.352-2.352h-1.176l1.176-2.352l2.352-2.351l2.352-3.526l0,0l1.176-1.176l1.172-2.351
			l1.179-2.351l2.35-2.351v-1.176l1.177-2.351l0,0v-1.176v-1.176v-1.176l0,0l-1.177-1.174v-1.176l-1.174-1.175v-1.175l0,0
			l-2.354-2.352l0,0l0,0l-1.172-1.175l-3.526-4.702l0,0v-1.177h5.877h1.176l2.351,1.177l3.525,1.175v-1.175l1.176-2.351l1.176-1.175
			l2.353-2.351v1.175h1.173v1.176l0,0L694.564,285.822z"/>
		<path fill="none" stroke="#CCCCCC" stroke-width="0.1" d="M679.282,274.068l-1.173,3.526l-3.526,5.875v1.177l0,0l-1.176,1.175l0,0
			l-2.351,2.351l-1.176,2.35l0,0l-1.175,1.175v1.177l-1.177,1.175l0,0l-2.352,2.351l0,0v1.174l-1.176,1.176l0,0l-1.175,2.352l0,0
			h-2.353H659.3v1.176l-1.173-1.176l-1.176-1.176l0,0l-2.35-2.352l-1.177-2.35l0,0l-1.176-1.175l0,0l0,0l-1.175-1.175v-1.177l0,0
			l1.175-1.175l0,0l-1.175-1.175v-1.175l0,0l-2.352-2.351l-1.177-1.175l2.351-2.351l1.178-1.175l0,0v-2.351v-1.175v-2.352l0,0
			v-2.351v-1.175v-1.175l1.175-4.702v-2.352v-2.35l0,0l0,0l3.526,1.174l0,0l3.522,1.175l0,0h1.179h2.352l0,0l3.525,1.175h1.176
			h2.352v2.351l0,0h3.525l2.352,1.175l2.352,2.352l2.351,1.175L679.282,274.068z"/>
		<path fill="none" stroke="#CCCCCC" stroke-width="0.1" d="M651.075,292.875l1.175,1.175l0,0l0,0l1.176,1.175l0,0l1.178,2.35
			l2.349,2.352l0,0l1.176,1.176l1.173,1.176v-1.176h1.178h2.353l0,0l1.175-2.352l0,0l1.176-1.176v-1.174l0,0l2.352-2.351l0,0
			l1.177-1.175v-1.177l1.175-1.175l0,0l1.176-2.35l2.351-2.351l0,0l1.176-1.175l0,0l3.526,4.702l1.173,1.175l0,0l0,0l2.354,2.352
			l0,0v1.175l1.174,1.175v1.176l1.176,1.174l0,0v1.176v1.176v1.176l0,0l-1.176,2.351v1.176l-2.351,2.351l-1.178,2.351l-1.173,2.351
			l-1.176,1.176l0,0l-2.352,3.526l-2.351,2.351l-1.177,2.352l0,0h-3.525l0,0l-1.176,1.176l-4.702,2.352l0,0l-4.701-1.176h-1.175
			l-1.174-1.176h-1.178h-1.176l0,0l-2.352-1.176l0,0h-1.176l-3.524-2.352v-1.176l0,0l0,0l0,0l0,0h-1.179l-3.524-3.525l-2.351-2.352
			h-1.176v-1.175l0,0l1.176-1.176v-1.175l1.176-3.527v-1.176h1.175v-2.351v-1.176h1.181v-2.352l1.172-1.174l0,0h1.174l1.178-1.176
			l-1.178-1.175l-1.174-1.175l-1.172-1.177l-1.181-1.175l2.353-1.175l4.7-4.702l1.177,1.175l2.352,2.351l0,0v1.175l1.175,1.175l0,0
			l-1.175,1.175l0,0v1.177H651.075z"/>
		<path fill="none" stroke="#CCCCCC" stroke-width="0.1" d="M711.021,370.45l1.174,1.176v-1.176l1.177,2.352v1.176l1.173,1.175
			l1.175,2.352l1.177,1.176l2.354,2.352l1.172,1.176l1.18,1.175h1.174h1.177l-1.177,2.353l1.177,1.176l-3.529,1.175l0,0
			l-1.172-1.175l-3.528-3.527l-1.176-1.175l-2.349,2.351v-1.176l-3.525-1.175v-2.351h-1.178l-4.7,1.175l-2.352,1.176l-3.526,1.175
			v-1.175v-1.176h-1.175v-1.175h-1.176l0,0l-1.178-1.177v-7.053l-3.523,1.176h-5.878v-1.176v-1.176l-1.177-1.174v-2.353v-1.176
			v-2.35l-1.174-2.353v-1.175l-1.176-4.701v-4.702h9.403l1.175-2.352l-1.175-1.175l0,0h5.877h5.876l1.177,1.175l1.175,1.176l0,0
			l-1.175,2.353v1.174l1.175,2.353v1.174v1.178l1.176,1.176v1.175l1.174,1.175l1.177,1.175v1.178v1.175l1.178,1.175l0,0l1.177,1.176
			L711.021,370.45z"/>
		<path fill="none" stroke="#CCCCCC" stroke-width="0.1" d="M645.198,295.225l-1.179,1.176h-1.174l0,0l-1.172,1.174v2.352h-1.18
			v1.176v2.351h-1.176v1.176l-1.176,3.527v1.175l-1.176,1.176l0,0v1.176h1.176l2.352,2.351l3.525,3.526h1.178l0,0l0,0l0,0l0,0
			l-1.178,1.176h-1.174l-2.353,2.351l-1.175,2.351l-1.176,1.177h-1.177l-1.173-1.177l-1.178,2.352l-1.176-1.175l-1.172-1.177
			l-2.354-1.174l-1.176-1.177l-1.176-2.351h-1.177v-1.176l-2.352-1.176v-1.176l-3.524-2.352l0,0v-1.176l1.174-5.875l0,0v-3.526
			l1.176-1.176v-1.176v-2.352v-1.174l1.176-2.351v-2.352l1.176-4.701l0,0v-1.175l1.176-1.175l2.353-1.177v-1.174h1.176v-1.175h1.174
			l2.351,2.349h1.177l1.178,1.177v1.175l0,0l2.349,2.351l0,0l1.177,1.175l1.175,1.175l1.18,1.175l1.172,1.177l1.174,1.175
			L645.198,295.225z"/>
		<path fill="none" stroke="#CCCCCC" stroke-width="0.1" d="M627.566,161.229v1.175l-1.176,4.701l-1.177,3.526l0,0l-1.176,1.176l0,0
			l-1.175,2.351l-3.525,5.877l-2.35,4.702l-1.177,1.175l-1.176,1.176l-1.175,1.175v2.351l-1.175,1.176v2.35l-5.877-1.175
			l-1.176-1.175l-2.35,1.175l-1.174-2.351l-1.177-2.351l-2.351-3.526l-1.175-1.175v-1.175l-1.176-1.175l-1.176-2.351l-1.174-2.352
			l-2.353-3.526l-3.526-4.7l-2.352-4.702h1.177v1.175h1.175l-1.175-3.526h2.351l1.175,3.526l4.702-1.175v2.351l0,0h-1.174
			l1.174,1.175l-1.174,1.177l1.174,3.525l0,0l0,0l0,0l2.352-1.176v2.351l0,0h1.175l1.175-1.175v1.175l4.702-1.175l0,0h-1.176v-1.176
			l-1.174-1.175l-1.177-1.174l-1.176-1.177l-1.175-1.175h1.175l1.176-1.175h3.526v-1.175l9.403-2.351h3.528l3.525-1.176l4.7-1.175
			l1.176,1.175L627.566,161.229z"/>
		<path fill="none" stroke="#CCCCCC" stroke-width="0.1" d="M742.756,346.943L742.756,346.943v1.175v1.176l0,0v1.176v2.351v1.176
			v1.177l1.174,3.526l2.353,5.876l1.176,4.702l1.176,4.7v1.175l1.177,5.878l1.174,3.525l0,0v1.177l1.177,3.525v2.352v3.526v3.525
			l-1.177,8.228l-1.174,4.703l-8.229-5.878l-2.349-2.351l-1.178-1.177l-1.176-2.351l-1.174-1.176l-1.178-1.176l-2.351-3.525h-1.176
			v-1.176v-1.176l-1.175-1.176l-1.178-2.352l-1.174-1.175l-3.524-3.527h-1.177H721.6l-1.18-1.175l-1.172-1.176l-2.354-2.352
			l-1.177-1.176l-1.175-2.352l-1.173-1.175v-1.176l-1.177-2.352v1.176l-2.35-4.701l-1.176-1.176l0,0l-1.178-1.175v-1.175v-1.178
			l-1.176-1.175l-1.174-1.175v-1.175l-1.177-1.176v-1.178v-1.174l-1.175-2.353v-1.175l1.175-2.352h1.177l0,0h2.35h3.529l5.873-1.176
			h1.176h1.178h4.701h3.524h1.175h1.176h2.352l1.176-1.176v-1.176v-2.351l1.176,2.351h1.177l1.174,1.176h1.176h1.179l0,0
			l1.174-1.176h1.174l1.177-2.351l0,0l1.175-1.177v1.177v1.175l-1.175,1.176L742.756,346.943L742.756,346.943z"/>
		<path fill="none" stroke="#CCCCCC" stroke-width="0.1" d="M782.719,247.033l1.176,8.228l0,0h9.404v10.58v2.35h-3.526h-1.177
			h-1.172l1.172,5.878h-2.351v7.052l-7.052,1.175l-2.351,1.174l-4.7,1.177l-4.705,1.175h-2.349l-2.351,1.175l0,0v1.176h-1.176
			h-1.177l0,0l-5.877,2.35l0,0l-3.526,1.175l0,0v-1.175l-1.176,1.175v1.177l-2.352,2.351v-1.175v-1.175v-1.177v-3.525v-2.351
			l1.176-3.526v-1.175v-2.351v-2.352v-2.35v-1.176v-3.526v-8.227l-1.176-3.527v-1.176v-1.175l-1.176-1.175l-1.174-1.175v-2.351
			h1.174l2.352,1.174l3.526-1.174l0,0h1.176h2.349h1.178h1.177l2.351-1.175h1.176h2.353h3.522l3.528-1.175h2.351L782.719,247.033z"
			/>
		<path fill="none" stroke="#CCCCCC" stroke-width="0.1" d="M618.163,392.784l-2.351,4.701l0,0h-1.176v-1.177h-1.175l1.175-1.174
			h-1.175l-1.175-1.176v1.176v1.174l0,0l-1.175,3.527l-2.352,4.702l-1.175-1.176v-1.177v-1.176l-3.526-1.175v-1.176h-1.176
			l-1.174-1.176l-3.527-4.701l1.175-1.176h-1.175l-1.175-1.176l0,0l0,0l0,0l-1.176-1.176h-3.526l-3.526-1.176l-2.351-1.175
			l-4.702-1.176l1.177-2.353v-1.175l0,0l0,0l1.174-1.176v-1.175l1.175-1.177l2.352-2.351l2.351-2.352l1.176-2.352h1.176h2.351l0,0
			h1.176l2.351-1.176h1.175h2.353h1.174h1.176h1.174h1.176l0,0h1.175h2.351h1.176h1.175h1.175h2.351l0,0h1.177h2.35h3.525
			l2.352-1.174h8.228l-2.351,5.875l-1.174,2.352l-1.177,2.352l-1.175,2.352l-2.354,2.351l-1.176,1.177l-2.352,2.351l-1.174,1.176
			l-1.176,2.352L618.163,392.784z"/>
		<path fill="none" stroke="#CCCCCC" stroke-width="0.1" d="M647.548,157.703v1.175l1.177,2.351l0,0l1.174,1.175v2.351h-4.699v2.35
			v3.526h-1.178v-1.175l-1.174-1.174l-1.173-1.177l-2.354-2.35l-2.352-1.175l-1.173-2.351l-1.178-1.176l-1.177-1.175l-1.172-1.175
			l-1.179-2.352h-1.174L627.566,153l-1.176-2.349l-3.526-2.352l-1.177,1.175h-1.174v-1.175v-1.175l-1.176-2.35l-2.35-5.877
			l-1.177-4.702v-1.176l5.876-1.175l0,0l2.351-1.176v-1.176h2.353v1.176l3.526-1.176v1.176l0,0h2.353l1.172,1.176h1.177l0,0h1.178
			h2.349v-2.352h3.53v1.176h2.347l1.178,1.176v1.175l1.175,7.052v1.175v2.352l0,0v2.351v1.175l-1.175,1.175h2.35l2.352,1.175v1.176
			v4.701l0,0v1.176l0,0L647.548,157.703z"/>
		<path fill="none" stroke="#CCCCCC" stroke-width="0.1" d="M521.78,239.98v1.176l-4.702,2.35v1.176l-3.525,1.175l-2.352,1.175
			v-2.35v-3.526l-3.526-2.351v-3.527h1.177v-1.175h-1.177v-1.176h-1.176l0,0v-7.052h3.528h1.174l0,0l0,0l-1.174-1.176l2.35-1.175
			v1.175l1.177,1.176l1.174,1.176h1.175l1.176,1.174l2.348,1.175l2.354,1.175v1.176h1.175v1.175l1.176,2.351l0,0l-3.526,1.175
			l1.176,1.176v2.352H521.78z"/>
		<path fill="none" stroke="#CCCCCC" stroke-width="0.1" d="M625.215,411.592h1.176h3.527l0,0h1.174l1.18-7.053l0,0h4.697
			l1.176,2.35h1.177h4.7v-1.175h1.178v1.175h1.175h3.524v2.353h-1.174l3.525,2.352l-1.175,4.701h1.175l-1.175,1.176l1.175,2.35
			v3.525v1.176v1.176l1.176,8.229v1.177l1.178,5.877h-2.354v2.351h-3.525v2.352v2.351l-7.049-1.175v-1.176l-1.181-1.176v3.525v1.176
			l-1.175,2.35v2.353l-1.176,5.877l0,0h-5.875v-5.877h-1.179l-2.35,2.351h-1.175v1.177l-1.178,1.175h-1.176v1.176h-2.351
			l2.351-3.526v-1.175h-1.176v-1.176l0,0l0,0l-1.175-1.174h-1.177l0,0l0,0l0,0l0,0v1.174l0,0l-2.35-1.174l0,0h-1.176l-3.527,1.174
			l-3.525,1.176l0,0l1.175,2.353h-1.175l-2.352,1.174l-1.175-1.174l0,0l3.527-3.527l-2.352-2.353l1.176-3.524l3.526-7.051h-1.175
			l3.526-7.055l2.351-7.052l1.176-1.177l2.35-7.052L625.215,411.592z"/>
		<path fill="none" stroke="#CCCCCC" stroke-width="0.1" d="M470.061,228.227v1.175h2.353h1.176l3.525-1.175l1.176,2.351l2.35,3.527
			l1.175,3.526l1.174,2.35l3.527,4.703l-2.352,2.35v7.053l-2.349-1.175l-3.525-1.176l-4.701-3.525l-3.528-1.177l1.176,2.352
			l-4.702,1.175v-2.351l-2.353,1.175v2.35h-4.699h-1.175l0,0l-1.176-2.35l-1.175-1.175v-1.177l-1.176-2.35v-2.352v-2.351v-5.876
			v-7.052v-4.702h4.701h5.877h2.352v2.35v1.176h1.175l1.174,1.176V228.227L470.061,228.227z"/>
		<path fill="none" stroke="#CCCCCC" stroke-width="0.1" d="M484.165,254.086l1.179,1.175l3.525,1.175l3.526,1.176l7.051,2.35
			l2.351,1.177l1.178,1.174l4.7,1.175l3.526,1.175l3.526,1.176l2.351,1.175l-2.351,3.527l-2.351,2.35l-2.35,1.176l-2.352,1.175
			l-5.878,1.175h-1.174l1.174,1.177l-2.351,1.175l2.351,2.351l-2.351,2.349l-3.525-1.174h-1.174l1.174,1.174v1.177l0,0h-1.174
			l-2.352-1.177v-2.349h-2.352v-2.351h-1.174l-4.704,1.175v-2.35l-1.175,1.175l1.175-3.526l-4.701-5.877h-1.173v1.176h-1.176h-2.352
			v-1.176h-5.876l-3.527-7.053l3.527-1.174l4.702-1.177l-1.176-5.876l2.35-1.175l1.176,1.175h2.352l0,0l3.525-1.175L484.165,254.086
			z"/>
		<path fill="none" stroke="#CCCCCC" stroke-width="0.1" d="M419.519,305.804l1.177,2.351l2.35-2.351l2.35-1.176l3.526,5.877l0,0
			l1.174-1.176l2.353,2.351l0,0l1.176-1.175l1.174,1.175l0,0l0,0h1.175l0,0l0,0l1.177-1.175h1.176l1.175-1.176h1.174l0,0l0,0
			l-1.174-1.175l0,0l0,0h1.174h4.702l8.229-2.351l0,0h1.175v1.175l0,0v1.176h1.176l0,0l0,0v1.175l0,0v1.176h1.175l0,0h1.176v1.175
			h1.175l0,0v1.176l0,0l0,0v1.176v1.176v1.176l0,0l0,0l1.175,1.176l0,0l0,0l1.176,1.176l1.175-1.176v1.176l0,0h1.174l0,0v1.175l0,0
			v1.176l0,0v1.176l0,0h1.178h2.352l3.525-1.176h2.353l-1.176,3.526l0,0l-1.177,2.351h-1.176l-2.349,2.351v-1.174h-2.352l0,0
			l-1.178,1.174l-3.524,1.176h-1.175l-2.351,1.177l-2.351,1.175h-1.175l0,0l2.351,5.877h-1.176v1.176l0,0l1.176,2.352l1.175,1.176
			v1.175v1.177l2.351-1.177l10.578-4.7l1.176,1.176h1.177h1.176l0,0l0,0h-1.176l-1.177,2.351l0,0v1.175l0,0l0,0l0,0v1.176h1.177
			v1.176l0,0l1.176,1.176l0,0l0,0v1.176l0,0l0,0l0,0l0,0v1.176l0,0l0,0v1.177l0,0h1.174l0,0l0,0l-1.174,1.174l0,0l0,0l0,0l0,0h1.174
			l0,0v1.176l0,0l0,0h-1.174l-3.528,3.527l0,0l0,0l2.353,4.699l3.525,5.878l-1.176,1.177h-1.174l0,0l-1.176,1.174l0,0v1.176
			l-1.177,1.176l-1.176,1.177l0,0l-2.349,2.351h-1.177v1.175h-1.175l0,0v1.176l-3.526-2.351h-1.176l-1.175,2.351l-5.876-4.7v1.174
			l-1.176,1.177l-1.177,3.526l0,0h-1.173l-1.179-1.177v-1.176l1.179-1.175l-1.179-1.177l-3.525,2.352v-1.175h-1.174l-2.35-5.878
			h-1.178l-1.174-2.35l0,0h-2.351l-2.352-4.701h-1.174l1.174-5.877l-2.35-5.877l-17.63-3.527h-3.529l0,0l0,0v-1.175l-1.175-1.177
			l1.175-1.176l4.702-2.351l0,0l1.175-1.175l0,0l3.529-2.353l0,0l3.525-2.351h1.175h1.176l-1.176-1.176v-1.176h1.176h-1.176
			l-2.35-7.053h1.175l-2.352-4.701v-1.176l-1.173-2.352l0,0h1.173h-1.173l-1.177-2.351l-1.173,1.175l-1.178-1.175v-1.176
			l-1.175-4.701l-2.35-4.702h1.177l-1.177-4.702h2.35v-1.176h1.175l0,0l1.178,3.526L419.519,305.804z"/>
		<path fill="none" stroke="#CCCCCC" stroke-width="0.1" d="M592.305,203.543l1.177,1.175v2.351l1.174,1.176l1.176,1.176l2.351,2.35
			l0,0l1.175,1.175l2.353,1.176l2.35,1.174l5.877,4.702l1.176,1.176h1.175l2.35,1.176l3.527,2.35l-3.527,3.526h-1.175l-3.526,3.527
			v1.175h-1.176l0,0l-2.35,2.351l-3.526,3.527l0,0l-1.174,1.175l-2.353,1.176l-2.35,2.35l-1.176,1.176l-3.526,3.526l-3.526,3.525
			h-1.176l-2.352-3.525l-2.349-2.352l-2.35-1.175l-2.354-3.526l-1.173-1.176l-1.177-1.175l-2.353-2.352h1.178l-2.351-1.175v-1.175
			h-1.174l-1.177-1.176l-2.35-1.175l-3.527-2.352h-1.176v-4.7v-1.175l1.176-5.876v-1.175v-7.052v-3.526v-2.351v-2.351v-1.175
			l-1.176-2.351l8.23,3.526l4.7,1.176l4.704,1.175h2.35h1.174h1.175h1.177l2.351-1.175l1.175-1.176l2.352-1.175l3.526-3.526
			l-1.176,1.176l-1.174,2.351l-1.177,1.175v2.348H592.305z"/>
		<path fill="none" stroke="#CCCCCC" stroke-width="0.1" d="M634.618,219.999l1.178,4.701v1.176h-1.178h-1.177h-1.172l-1.179-1.176
			l-1.174-1.175l-2.351-1.174l-1.178-1.176h-1.176l0,0h-1.176l0,0h-1.176h-1.176l-3.525,3.525l-3.526-2.35l-2.35-1.176h-1.175
			l-1.176-1.176l-5.877-4.702l-2.35-1.174l-2.353-1.176l-1.175-1.175l0,0l-2.351-2.35l-1.176-1.176l-1.174-1.176v-2.351
			l-1.177-1.175v-2.351l1.177-1.175l1.174-2.351l1.176-1.176l1.176-1.176l1.175-1.175l1.175-1.175h1.176h2.351l2.35-1.175
			l1.176,1.175l5.877,1.175h1.175l14.106,3.527l0,0v1.175v1.175l2.351,5.877l0,0l1.174,2.351l1.179,2.35v1.176l1.172,2.352v1.174
			v1.176v1.175L634.618,219.999z"/>
		<path fill="none" stroke="#CCCCCC" stroke-width="0.1" d="M636.969,224.7l-1.173,1.176V224.7l-1.178-4.701l-1.177-2.351v-1.175
			v-1.176v-1.174l-1.172-2.352v-1.176l-1.179-2.35l-1.174-2.351l0,0l-2.351-5.877v-1.175v-1.175l0,0l9.4,1.175l1.176,1.175h3.53
			l3.523,1.175h1.175l2.352,1.176l5.879,1.175l1.174,1.175l1.175,1.176l0,0l1.176,1.175l1.173,2.352l2.354,2.35v1.175l1.177,1.176
			l-1.177,3.526l-1.176,3.526v1.176l-1.178,1.174h-2.349h-1.175h-1.174h-3.527l-2.352,1.175h-1.177h-1.175h-2.354h-2.346h-2.354
			L636.969,224.7L636.969,224.7z"/>
		<path fill="none" stroke="#CCCCCC" stroke-width="0.1" d="M647.548,130.667v1.176h1.177v2.352l3.525-1.176l0,0h1.176l1.178,3.526
			l1.174-1.176v1.176l1.175,1.176v2.35v1.175v1.176h1.176h1.173l1.178,1.176l0,0l-1.178,1.177l4.704,5.876h2.353v-1.176l0,0l0,0
			l3.525-1.175v2.352l5.877-1.176v-2.351l0,0l-1.176-1.175l2.352-1.174l1.176,3.525l0,0l1.173,2.352l2.354-1.176l-1.176-1.175h1.176
			l0,0l2.351-1.175v1.175l2.353,5.877h-1.177v1.175h-1.176h-1.176v-1.175l-3.53-1.179h-1.173h-1.176h-3.526h-3.525h-4.702
			l-2.351,2.352l1.175,3.527l0,0l-3.525,1.175l0,0l-3.526,1.176h-1.175l1.175,5.876h-1.175l1.175,2.351l1.176,1.175v3.527l0,0
			l-1.176,1.175l-1.175,1.175h-1.174l-1.178,1.176v1.176l1.178,1.175v1.176l1.174,1.175v1.175l1.175,1.175v1.175l-1.175-1.175
			l-2.352,2.351l-1.176,9.403v1.176l4.701,1.175v4.702h-2.35l-2.353-4.702h-1.175v-2.351l-1.178-1.176l-1.175-5.877l-1.176-3.526
			l-1.175-9.403l-1.176-3.526v-1.175l-1.178-1.176h1.178v-3.526v-2.35h4.701v-2.351l-1.176-1.175l0,0l-1.176-2.351v-1.175
			l2.352-1.176l0,0v-1.176l0,0v-4.701v-1.176l-2.352-1.175h-2.35l1.175-1.175v-1.175v-2.351l0,0v-2.352v-1.175l-1.175-7.052v-1.175
			L647.548,130.667z"/>
		<path fill="none" stroke="#CCCCCC" stroke-width="0.1" d="M711.021,145.948L711.021,145.948h1.174l-1.174,2.351v3.526h5.875V153
			l-1.178,2.352v1.176h1.178v3.526h2.353l2.353-1.175l-1.181,1.175l-4.7,8.229l-3.523,5.876l-1.174,2.351v1.176l-1.176,3.527
			l-2.354,3.525h1.178l-2.354,2.351l-2.35,5.877h-1.175l-2.351,1.175l-1.176,1.175l0,0l1.176-2.351l-3.527-1.175l-2.35-1.176h-1.178
			l-1.174,1.176l-1.177-1.176l-2.353-1.176l1.178-2.351l1.175-4.702l1.177-2.351l1.174-3.526l1.178-2.351l1.175-2.351l0,0
			l1.175-4.702l1.175-2.35l1.179-2.351l1.174-2.351l2.352-7.053l1.175-2.349l2.351-5.876h2.354h2.352v1.174H711.021z"/>
		<path fill="none" stroke="#CCCCCC" stroke-width="0.1" d="M472.414,324.609l-1.177,5.877l-1.176,7.054v2.351l-10.578,4.701
			l-2.351,1.176v-1.176v-1.175l-1.175-1.176l-1.176-2.351l0,0v-1.177h1.176l-2.351-5.877l0,0h1.175l2.351-1.175l2.351-1.176h1.175
			l3.524-1.176l1.178-1.176l0,0h2.352v1.176l2.349-2.352h1.176L472.414,324.609z"/>
		<path fill="none" stroke="#CCCCCC" stroke-width="0.1" d="M614.636,264.664v1.176l-2.35-1.176h-4.702h-7.052l-1.176-1.175
			l-1.175-1.175l-1.175-1.174l-1.176-1.177l-1.176-1.174h-1.174v-1.176h-1.177l-1.176-2.351l-2.351-2.35v-1.176l3.526-3.525
			l3.526-3.526l1.176-1.176l2.35-2.35l1.176,1.175l2.351,1.175l2.35,1.176l2.352,2.35l2.351,1.177l2.351,3.525l2.35,1.176
			l1.176,2.35l0,0l2.351,2.351l2.352,2.35l-1.176,1.177l-2.35,2.35l-1.177,1.175h-1.175V264.664z"/>
		<path fill="none" stroke="#CCCCCC" stroke-width="0.1" d="M614.636,279.944l-1.175,2.351h-2.35h-1.176h-1.176h-2.35l-2.351-1.175
			h-2.35h-1.177l-1.176,1.175l-1.175-1.175l1.175-1.176l0,0v-3.526l0,0v-1.175v-3.526l1.176-5.876v-1.176h7.052h4.702l2.35,1.176
			l0,0v3.526v2.351v4.701v1.177L614.636,279.944L614.636,279.944z"/>
		<path fill="none" stroke="#CCCCCC" stroke-width="0.1" d="M651.075,275.243v2.352v1.175v2.351l0,0l-1.177,1.175l-2.352,2.351
			l-4.701,4.702l-2.352,1.175l-1.176-1.175l-1.176-1.175l0,0l-2.349-2.351l0,0v-1.175l-1.178-1.177h-1.177l-2.351-2.349l2.351-2.351
			l1.177-1.175h-1.177v-1.177l0,0l1.177-1.175l0,0h1.178l0,0l0,0h1.173l3.526-2.351l2.352,2.351l1.175-1.175l1.178-1.176h3.525
			l1.174-1.175h1.178v1.175L651.075,275.243L651.075,275.243z"/>
		<path fill="none" stroke="#CCCCCC" stroke-width="0.1" d="M687.512,276.418l2.353,1.177l1.175,1.175h1.177l-2.352,2.351
			l-1.177,1.175l-1.176,2.351v1.175l-3.525-1.175l-2.35-1.177h-1.177h-5.877l3.526-5.875l1.173-3.526l1.178-2.352l1.176,1.175h1.175
			l1.176,1.176l2.353,1.175L687.512,276.418z"/>
		<path fill="none" stroke="#CCCCCC" stroke-width="0.1" d="M631.092,328.137v1.176l0,0l-1.174,3.525v1.176l-1.176,1.176
			l-1.176,1.176l-2.353,1.176l-1.176,1.175l0,0h-4.7l-2.35,1.177l-9.405,2.351l-1.175-3.526l0,0l0,0l-1.176-2.352v-1.174l0,0
			l-1.174-2.353h2.351l-1.176-4.7l-1.174,1.174h-1.176l-1.174-2.351l0,0v-1.176l3.524-1.175h1.176l2.35-1.176h1.176l1.176-1.176
			l1.175-1.176h1.175h1.175l1.176-1.176h1.177l1.174-1.176l0,0l3.524-1.176l2.352-1.175l2.352,1.175v1.176h1.178l1.174,2.352v1.176
			l0,0l0,0l1.177,1.176v1.176l1.174,2.351l0,0L631.092,328.137L631.092,328.137z"/>
		<path fill="none" stroke="#CCCCCC" stroke-width="0.1" d="M633.441,324.609l1.177,1.176l1.178-2.352l1.173,1.176l1.176,1.176
			l1.177,1.176l0,0l1.175,1.176l1.18,1.176l1.172,1.176l1.174,1.176h2.354l0,0v2.352H645.2v1.176l0,0v1.174l-1.179,3.527v2.351
			v2.351l-1.174,1.176l0,0v4.702l0,0l-1.172,3.525v1.177v1.174h-3.529h-2.35l-8.229-1.174l0,0h-3.528h-1.175h-1.176h-1.174
			l-1.177-1.177h-2.35l-1.177-2.351l-2.351-1.176v-1.176h-1.175v-1.176l-1.175-1.176l-1.176-1.176l-1.176-1.176h-1.175l0,0l0,0
			l-2.352-1.175v-1.176h2.352l9.405-2.351l2.35-1.177h4.7l0,0l1.176-1.175l2.354-1.176l1.175-1.176l1.176-1.176v-1.176l1.175-3.525
			l0,0v-1.176v-1.176l0,0l-1.175-2.352v-1.176l-1.176-1.175l0,0l0,0v-1.176l1.176,1.176l2.353,1.175L633.441,324.609z"/>
		<path fill="none" stroke="#CCCCCC" stroke-width="0.1" d="M723.95,295.225v3.525v1.176v1.176v3.526v1.176l0,0v1.175v2.351v3.525
			h-3.529h-3.524l-3.523,1.176h-1.176v4.701l0,0v1.176v2.352l-1.174,2.352v1.175l0,0l-1.176,1.176l1.176,1.176l-1.176,1.175l0,0
			h-1.177v2.353h-1.178v1.175l-2.351-1.175l-1.176-1.177l-2.352-1.176l1.177-1.175l-1.177-1.176l-2.35-1.176l-1.178,1.176h-1.175
			l-3.526-2.351l0,0h-1.174l-1.177-1.176l1.177-3.526h1.174v-2.351l1.178-1.176v-1.176l1.175-1.176v-1.176v-3.525v-2.351v-2.351
			v-2.35l0,0l-1.175-2.352v-1.176v-1.176v-2.35h3.523h2.354h1.174h1.177h2.351h2.351h1.178h1.177h2.35h2.349h2.353h1.175h1.178
			h2.353L723.95,295.225L723.95,295.225z"/>
		<path fill="none" stroke="#CCCCCC" stroke-width="0.1" d="M708.671,250.56h1.177h1.176h1.174h1.176v1.174h2.348h1.178h2.353h1.173
			h1.18h1.173v3.526v2.351v3.527v2.35v1.175v2.351v2.351v1.176v1.175v2.352v1.175l1.177,1.175v1.177v2.35v1.176v1.175v1.174v1.177
			v2.35v1.176v4.702v1.175v1.175h-2.35h-2.353h-1.178h-1.175h-2.352h-2.35h-2.35h-1.176h-1.179h-2.351h-2.351h-1.177h-1.174h-2.354
			h-3.523v-1.175v-1.175v-3.526v-1.175v-2.351l0,0l-1.178-4.702l0,0v-1.176h-1.174v-1.175h-1.177l-1.175-1.175l-2.352-1.177
			l-1.174-1.175l-2.354-1.175l1.176-1.176l1.178-1.175v-1.175l1.174-1.176l1.174-1.176l1.178-1.175l2.352-3.526l1.174-3.527h1.178
			l1.175-2.35h1.175v-1.176l1.176-1.175v-1.175l1.178-1.175l1.175-2.351l1.174-1.175l0,0l2.353-2.352h1.176l1.174,1.177l2.354,1.175
			L708.671,250.56L708.671,250.56z"/>
		<path fill="none" stroke="#CCCCCC" stroke-width="0.1" d="M693.389,429.222l2.353,14.104l1.175,1.176v5.877l1.175,2.353
			l-3.524,1.174h-1.178l-1.173,1.176l-1.177,1.175l1.177,1.177l0,0v1.175l1.173,1.176l0,0v1.176v1.176l0,0l0,0l5.881-1.176
			l1.174,8.228l0,0v-1.175l-2.353,1.175v2.353v3.526v1.175l0,0v2.351l-2.35,1.176v-1.176h-1.175v-1.176h-1.178l0,0h-1.174h-1.177
			l-2.353-5.876h1.178l-1.178-1.175l0,0v-3.527l0,0l1.178-1.176v-1.175v-2.352l0,0v-2.352l-3.525,1.176h-2.354l-1.176,1.176v-1.176
			h-2.35v-1.176v-2.351h5.878l-1.177-1.177l-1.176-4.702l-1.176-2.35l1.176-2.352l-1.176-9.402v-3.526l2.352-1.177l5.877-3.524
			v1.177L693.389,429.222z"/>
		<path fill="none" stroke="#CCCCCC" stroke-width="0.1" d="M654.604,458.605l1.174,2.352l1.175,2.351l1.176,3.526h-4.7l0,0v-1.176
			l0,0v-1.175v-1.177v-1.175v-1.176l0,0h-1.177l-2.353,1.176v-1.176l0,0l-2.351-3.525l0,0l-2.35-2.352v-1.176l5.877-2.353
			l2.351,1.179v1.174h1.178v1.176v1.175V458.605L654.604,458.605z"/>
		<path fill="none" stroke="#CCCCCC" stroke-width="0.1" d="M760.389,418.643l-3.527,5.877l-3.525,1.176l-1.176,1.177l-2.352-1.177
			l1.176-1.176l-1.176-2.35l0,0v-1.176h-1.176v-1.177l0,0l-1.176,4.701l-1.176,3.526l-5.877-3.526l2.352-2.35l2.354-3.527
			l1.172-2.35l2.353-3.527v-1.174h1.177l2.351,2.351l3.524,1.175l2.354,2.353L760.389,418.643z"/>
		<path fill="none" stroke="#CCCCCC" stroke-width="0.1" d="M712.195,383.38v1.176l2.35-2.351l1.175,1.175l3.529,3.527l1.172,1.175
			l0,0l3.529-1.175l-1.177-1.176l1.177-2.353l3.524,3.527l1.174,1.175l1.178,2.352l1.175,1.176v1.176v1.176h1.176l2.351,3.525
			l1.178,1.176l1.174,1.176l1.176,2.351l1.178,1.177l2.349,2.351l8.229,5.878h-1.177v1.174l-2.352,3.527l-1.173,2.35l-2.354,3.527
			l-2.351,2.351l5.876,3.525l1.176-3.525l1.176-4.702l0,0v1.177h1.176v1.176l0,0l1.176,2.351l-1.176,1.175l2.352,1.177l1.176-1.177
			l3.526-1.175l3.526-5.878l2.352,2.353l1.176,1.176h1.176v1.174l3.524,1.177l1.176,1.175l-5.876,4.703l-1.176,1.174l0,0
			l-4.702-2.351l-2.354,4.701v1.177l0,0l1.179,1.175v1.176l0,0l-1.179,1.177l0,0l-1.172,1.175h-1.177h-1.176v1.176h-1.177v-1.176
			h-1.174l-1.177-1.175l-1.176-1.177h-1.176l0,0l-1.173,1.177l0,0l0,0v-1.177l-3.529,1.177l0,0h-1.174l-3.527,3.524l0,0h-3.525l0,0
			h-3.525l-1.178,1.176l-1.174-1.176l-1.174-1.175l-2.352-1.176l-1.178-2.352l-4.701,3.526l0,0l-4.699,2.351v1.176l1.173,2.352l0,0
			l0,0l-1.173,1.175l-1.176,1.176l-1.174,1.176h1.174l-1.174,3.525l0,0v3.526v2.351l0,0v1.176l1.174,1.176v1.175l2.349,3.526v1.176
			l-5.874,1.175v-1.175l-8.229,1.175l-1.176-8.228l-5.88,1.176l0,0l0,0v-1.176v-1.176l0,0l-1.173-1.176v-1.175l0,0l-1.177-1.177
			l1.177-1.175l1.173-1.176h1.179l3.523-1.174l-1.175-2.353v-5.877l-1.175-1.176l-2.354-14.104l-2.35,1.177v-1.177l-5.877,3.524
			l-2.352,1.177v3.526l0,0l1.176,10.578l-1.176,1.176l1.176,2.35l1.176,4.702l1.177,1.177h-5.878v2.351v1.176h2.35v1.176
			l1.176-1.176h2.354l3.525-1.176v2.352l0,0v2.352v1.175l-1.178,1.176l0,0h-2.349l0,0h-1.177l0,0h-1.176h-1.176l1.176,1.176
			l-2.351,5.877l0,0l1.175,1.177l0,0l1.176,1.175l1.176,3.525l1.177,1.176l-1.177,1.176l-1.176,1.177l-1.176,2.35v1.175h-2.351
			v1.179l0,0l-3.524,3.526l-2.353,1.175h-1.176l0,0l-3.525,1.177V492.7v-1.175v-1.177l0,0h-1.175v-1.177v-1.174l0,0l-1.178,1.174
			l0,0v-1.174l0,0l0,0v-2.354l0,0h-1.174l1.174-2.35l0,0l0,0v-1.177v-1.177l0,0v-1.175l0,0v-1.176l0,0h-1.174h-1.177l0,0v1.176
			l-1.176,1.175h-1.175v1.177h-1.178l0,0l-1.174,1.177v-1.177v1.177l0,0l0,0v-1.177H659.3l0,0l0,0v2.351v1.176h-1.173l-2.352-1.176
			h-1.174h-1.177l-1.176-1.174l1.176-2.354l0,0l-5.878-3.525l0,0h-1.175h-1.175l-1.178-1.175l0,0h-1.174l0,0l-5.879-1.175v-7.054
			l1.176-8.229l0,0l1.177-5.877v-2.353l1.175-2.35v-1.176v-3.525l1.18,1.176v1.175l7.049,1.176v-2.351v-2.352h3.526v-2.351h2.353
			l-1.176-5.877v-1.177l-1.177-8.229v-1.176v-1.176v-3.525l-1.175-2.35l1.175-1.176h-1.175l1.175-4.701l-3.526-2.352h1.176v-2.353
			v-3.524v-3.526v-1.176v-1.176l3.526-2.351l1.177,2.351l1.174-1.177l2.352,3.527l3.525-2.352l2.352,2.352l2.352-1.176l1.176,1.176
			v-1.176h4.701v-5.877h3.527l1.176,3.524l2.348,7.055l1.178,2.351l1.176,1.175l4.703,3.527l2.348,1.176l2.353,2.351h1.177
			l1.174-1.177l-2.351-5.877l3.527-2.35l0,0l0,0h1.175v1.175l4.702-2.351l-1.175-2.353l2.349-1.175h2.353l0,0l-1.176-3.527
			l-1.177-1.174l-1.174-4.702l-1.175-5.878h-1.178v-1.176h-1.176l3.527-1.175l2.351-1.176l4.7-1.176h1.178v2.352L712.195,383.38z
			 M647.548,457.432l2.351,3.525l0,0v1.176l2.353-1.176h1.176l0,0v1.176v1.175v1.177v1.175l0,0v1.176l0,0h4.701l-1.176-3.526
			l-1.175-2.351l-1.174-2.353v-2.351v-1.175v-1.176h-1.178v-1.175l-2.351-1.178l-5.878,2.353v1.176L647.548,457.432z"/>
		<path fill="none" stroke="#CCCCCC" stroke-width="0.1" d="M752.159,352.819L752.159,352.819h1.176h1.177h1.172v2.353l1.178,1.174
			v1.178v1.176l0,0v1.175l1.177,1.175h-1.177l1.177,1.175l-2.354,2.353l4.705,4.702l3.526,3.524h1.175l1.176,1.176v1.175v1.177l0,0
			l2.351,2.351l4.7-5.877l4.703,2.351l-1.176,1.177l-1.175,2.351l-1.175,2.352l-1.178,1.176l-1.174,2.351h-1.177l-1.176,1.177
			l-2.353,2.351l-1.174,1.176l-1.176,1.177l-2.352-1.177l0,0l-1.176-1.176l-1.176-1.175l-2.352-1.176l-1.176-1.177h-1.178
			l-5.875-3.525l-1.176-5.878v-1.174l-1.176-4.701l-1.176-4.702l-2.353-5.876l-1.174-3.526V354v-1.176v-2.351v-1.176l0,0
			l2.353,1.176h1.174l1.176,1.177l1.176,1.174h2.352h1.179V352.819z"/>
		<path fill="none" stroke="#CCCCCC" stroke-width="0.1" d="M752.159,309.33h3.524h1.178h2.35h1.177l3.527,1.176h2.351h4.701v2.35
			v3.527v1.176l1.176,2.351v1.176l1.174,2.351l3.527,7.054l4.701,8.228l0,0l1.174,1.176v1.176v1.176l1.176,1.176v2.352v1.176
			l-1.176,2.351v4.701l-1.174,1.177v3.526l-1.177,3.523v3.526l-1.175,2.352l-1.174,4.701v2.351l-4.703-2.351l-4.701,5.877
			l-1.178-1.176l-1.172-1.175l0,0v-1.177v-1.174l-1.177-1.177h-1.175l-3.527-3.524l-4.703-4.702l2.354-2.353l-1.176-1.175h1.176
			l-1.176-1.175V358.7l0,0v-1.176v-1.178l-1.178-1.174v-2.353h-1.174h-1.176h-1.176l0,0h-1.176h-2.352l-1.176-1.174l-1.176-1.177
			h-1.174l-2.353-1.176v-1.176v-1.175l0,0v-1.176l1.174-1.177v-1.175v-1.176l1.179-1.176l1.174-3.525v-3.525v-3.526v-1.177v-4.7
			v-1.177l1.176-3.525v-5.877v-2.352v-2.351h1.176h2.352L752.159,309.33L752.159,309.33z"/>
		<path fill="none" stroke="#CCCCCC" stroke-width="0.1" d="M679.282,370.45l1.178,1.176l0,0l0,0l1.176,1.176h1.175l0,0h1.176h5.878
			l3.524-1.176v7.053l1.178,1.177l0,0h1.175v1.175h1.175v1.176v1.175h1.175v1.176h1.179l1.174,5.878l1.175,4.702l1.177,1.174
			l1.175,3.527l0,0h-2.352l-2.349,1.175l1.174,2.353l-4.701,2.351v-1.175h-1.176l0,0l0,0l-3.526,2.35l2.35,5.877l-1.173,1.177
			h-1.177l-2.353-2.351l-2.349-1.176l-4.702-3.527l-1.176-1.175l-1.178-2.351l-2.348-7.055l-1.177-3.524l-1.176-4.702l-1.177-1.175
			l-1.174-2.353l-1.177-3.525l-1.175-2.352l-1.175-3.526l-1.177-1.175l-1.176-2.352l-1.176-1.176l0,0h1.176h5.877h3.526h2.351
			L679.282,370.45L679.282,370.45z"/>
		<path fill="none" stroke="#CCCCCC" stroke-width="0.1" d="M721.602,158.878l1.172,1.175v-1.175v1.175l0,0h1.178l0,0h2.352v-1.175
			l0,0v1.175h1.174l0,0v1.176h2.352l3.525-1.176v1.176l2.353-1.176v3.527l1.174,2.351l2.354-1.175l1.174,3.527l0,0v2.349l0,0
			l1.174,3.527h2.352l0,0l1.179,4.702l-8.23,2.351v1.175l3.527-1.175l1.174,4.701l1.177,2.351v2.351l2.354,4.701v1.176v1.176l0,0
			l1.173,1.175v2.351l1.176,2.351v1.175l0,0h-1.176v1.176h-2.353h-2.351l-1.174,1.175h-2.353h-1.176h-1.174l-1.177,1.176h-2.351
			h-1.177l0,0h-1.175h-1.178h-1.174l-1.174-1.176h-1.177h-1.175h-2.35l-1.181,1.176h-1.172h-1.178h-1.175l-1.178,1.176l0,0h-1.175
			v1.174h-1.173v2.351l-1.176,1.176v-1.176v-1.175v-1.176l1.176-3.526v-1.175l1.173-2.351l1.175-2.351l-1.175-7.053v-2.35
			l-2.349,1.175l-1.174-1.175v-1.176h-1.176v5.877v4.702h-1.177l-2.354-1.175h-1.174v-1.175l-1.176-2.351v-2.351v-1.175l2.35-5.877
			l2.354-2.351h-1.178l2.354-3.525l1.177-3.527v-1.176l1.174-2.351l3.522-5.876l4.701-8.229L721.602,158.878z"/>
		<path fill="none" stroke="#CCCCCC" stroke-width="0.1" d="M708.671,229.402l-3.526,4.702l-1.177,1.175l-1.175,2.352v1.175
			l-3.525,4.701l0,0l0,0l1.176,1.176l2.351,1.175l1.175,1.175l-2.352,2.352l0,0l-1.174,1.175l-1.176,2.351l-1.178,1.175v1.175
			l-1.175,1.175v1.176h-1.175l-1.176,2.35h-1.178l-1.173,3.527l-2.352,3.526l-1.177,1.175l-1.176,1.176l-1.174,1.176v1.175
			l-1.177,1.175l-1.177,1.176l-1.176-1.176h-1.174l-1.176-1.175l-2.352-1.175l-2.351-2.352l-2.353-1.175l0,0l1.177-1.175
			l2.353-1.176l1.174-1.175l0,0l1.174-4.701l1.178-2.352v-2.35l1.176-3.526l-1.176-1.175h-1.178l2.354-2.352l2.35-3.526l1.177-1.175
			v-1.175l2.351-1.176l1.176-2.35l1.176-1.176l1.176-1.175v-1.175h1.177v-1.176l0,0l1.173-1.175l2.354-2.352v-1.175v-1.174
			l3.527,2.35v1.175l2.349,1.176l1.177-2.352l2.352-3.526l2.35-2.351v-1.174l1.178-3.526l0,0h1.176l0,0l1.176-1.176v-1.175h1.175
			l2.349,1.175v1.176l1.176,1.175l0,0v1.176v2.35v1.175h-1.176h-1.173l-3.524,1.176v1.176l0,0v1.174L708.671,229.402z"/>
		<path fill="none" stroke="#CCCCCC" stroke-width="0.1" d="M693.389,211.771h-2.351l-1.175-1.176h-2.352h-1.175l-2.353-1.174
			h-1.176h-2.351l2.351-4.702v-1.175l1.176-2.351v-1.175l0,0l1.176-1.175l1.177-2.351v-1.176v-1.175h1.175v-1.175v-1.175
			l1.174-2.352l2.353,1.176l1.177,1.176l1.174-1.176h1.178l2.35,1.176l3.527,1.175l-1.176,2.351l0,0l1.176-1.175l2.351-1.175h1.175
			v1.175v2.351l1.176,2.351v1.175h1.174l2.354,1.175h1.177v-4.702v-5.877h1.176v1.176l1.174,1.175l2.349-1.175v2.35l1.175,7.053
			l-1.175,2.351l-1.173,2.351v1.175l-1.176,3.526v1.176v1.175v1.176v1.174l1.176,1.176l0,0l1.173,1.175l0,0l0,0l-2.349-1.175h-1.174
			v1.175l-1.176,1.176l0,0h-1.177l0,0l-1.178,3.526v1.174l-2.351,2.351l-2.351,3.526l-1.177,2.352l-2.35-1.176v-1.175l-3.526-2.35
			v1.174h-1.175l-2.352-1.174l0,0l-2.352-1.176l-2.352-1.176v-1.175l0,0l1.174-1.174v-1.176l1.178-2.351l3.523-4.702v-2.352H693.389
			z"/>
		<path fill="none" stroke="#CCCCCC" stroke-width="0.1" d="M713.372,250.56h-1.177h-1.174h-1.176h-1.176v-1.175l-2.354-1.175
			l-1.174-1.177h-1.177l-1.175-1.175l-2.352-1.175l-1.175-1.176l0,0l0,0l3.525-4.701v-1.175l1.175-2.352l1.176-1.175l3.527-4.702
			l1.176-1.175v-1.174l0,0v-1.176l3.525-1.176h1.173h1.175v-1.175v-2.35V220l0,0l2.352,1.176l1.179,1.176l2.352,1.174l1.173,1.175
			h1.178l2.352,1.176l1.174,1.176h1.174l0,0l2.353,2.35l2.353,4.702l1.174,1.175l1.178,1.175v1.176l2.35,2.35v1.176l1.178,1.175l0,0
			l1.174,1.175l1.175,2.351l1.177,1.175l2.354,3.527h-2.354h-1.177h-1.175h-3.526l0,0l0,0h-3.524l-1.177,1.174h-1.176h-1.175h-1.178
			h-1.174h-1.174h-1.177h-2.353h-1.173h-1.18h-1.172h-2.354h-1.177h-2.348L713.372,250.56L713.372,250.56z"/>
		<path fill="none" stroke="#CCCCCC" stroke-width="0.1" d="M807.403,288.173v7.052h-2.351v2.35h1.174l0,0h-1.174v2.352l0,0v1.176
			v2.351v3.526h1.174v1.176v2.351h-17.632h-8.228h-3.524h-3.526h-2.351h-4.7h-2.352l-3.527-1.176h-1.177h-2.35h-1.179h-3.523h-1.176
			h-2.352h-1.176v-8.228v-1.176v-4.701l0,0l2.352-2.351v-1.177l1.176-1.175v1.175l0,0l3.526-1.175l0,0l5.878-2.35l0,0h1.176h1.176
			v-1.176l0,0l2.351-1.175h2.349l4.705-1.175l4.701-1.177l2.35-1.174l7.052-1.175l0,0l-1.175,2.349l1.175,3.527l0,0h2.351l0,0
			l3.529-1.175h3.525l2.349-1.175l0,0l1.177-1.177l3.526,1.177h1.175h3.526V288.173L807.403,288.173z"/>
		<path fill="none" stroke="#CCCCCC" stroke-width="0.1" d="M673.407,228.227l-2.351-1.174h-1.176l-1.175-1.176l-3.526-1.176h-1.177
			l-3.526-2.35v-1.176l1.176-3.526l1.177-3.526l-1.177-1.176v-1.175l-2.354-2.35l-1.173-2.352l-1.176-1.175l0,0l-1.175-1.176
			l-1.174-1.175h2.349l3.526,1.175h2.352l7.053,2.351h1.175h1.177h1.174l3.527,1.176h1.176h1.172l1.179,1.176h2.35h1.177
			l2.353,1.174h1.174h2.353l1.175,1.176h2.35v2.352l-3.524,4.702l-1.176,2.351v1.176l-1.176,1.174l0,0v1.175l2.352,1.176
			l2.353,1.176l0,0l2.351,1.174h1.176v1.175l-2.354,2.352l-1.173,1.175l0,0v1.176h-1.177v1.175l-1.176,1.175l-1.176,1.176
			l-1.176,2.35l-2.351,1.176v1.175l-4.701-2.351l-1.179-1.175l-1.172-1.175h-2.352l-2.352-1.176l-2.352-1.175l1.176-3.525
			L673.407,228.227z"/>
		<path fill="none" stroke="#CCCCCC" stroke-width="0.1" d="M683.984,243.507l-2.35,3.526l-2.354,2.352l-2.348-2.352l-1.177-1.175
			l-1.176,1.175l-2.351,4.702l0,0v1.176l-1.177,1.175h-1.175h-1.175l-2.353,1.175h-1.176L664,254.086v-1.175h-1.176l0,0l0,0l0,0
			l-2.352-1.176l0,0l-3.525-2.35l0,0l0,0l-4.701-2.352v-1.175v-1.175l-1.176-4.703l0,0v-3.526h1.176v-2.35l1.176-1.176v-1.175l0,0
			v-2.352l1.178-3.526l1.174-2.351h1.174h2.35l1.178-1.174l3.526,2.35h1.176l3.527,1.176l1.175,1.176h1.175l2.351,1.174
			l-1.174,3.527l-1.177,3.525l2.351,1.175l2.353,1.176h2.351l1.174,1.175l1.178,1.175l4.701,2.351L683.984,243.507z"/>
		<path fill="none" stroke="#CCCCCC" stroke-width="0.1" d="M652.25,261.139v2.35v2.352l-1.175,4.702v1.175h-1.177l-1.176,1.175
			h-3.524l-1.179,1.176l-1.174,1.175l-2.352-2.351l-3.526,2.351h-1.173l0,0l0,0h-1.178l0,0l-1.176-1.175l-1.172-1.176l-1.18-2.35
			l-2.35-1.176l-1.176-2.351l-3.527-2.351v-1.175l-1.175-1.175l-1.177-1.174l0,0l-1.174-1.177l-2.352-2.35l-2.351-2.351l0,0
			l-1.176-2.35l-2.35-1.176l-2.351-3.525l-2.351-1.177h3.527h1.175h3.526l0,0h2.351h3.525h3.525h3.527h1.176l1.174,1.177h4.704
			h3.524l-1.176-3.526v-1.176l-1.177-2.35l0,0v-1.176h2.353l2.354,1.176h1.172l2.352,1.175l2.351,1.175l4.702,5.878v2.35v2.352
			l-1.176,2.35v3.526l0,0L652.25,261.139z"/>
		<path fill="none" stroke="#CCCCCC" stroke-width="0.1" d="M606.409,289.348v4.702v1.175v1.176v1.174h-4.7l-1.177,1.176h-2.351
			l-1.175-1.176l-2.352,1.176l0,0h-1.174l-2.353-1.176h-1.176v-2.35l0,0v-1.175v-1.175h-1.175v-1.177v-1.175v-1.175v-1.175
			l-1.176-2.351l0,0v-3.526l-1.175-1.175v-1.176l-1.177-2.35v-1.177v-1.175v-2.351v-1.175v-3.526v-2.35v-3.527v-2.352l-1.175-1.174
			v-1.176h1.175v-1.176l1.177-1.175v-1.175l1.175-1.175l0,0l1.176-1.176v1.176l2.351,2.35l1.176,2.351h1.177v1.176h1.174
			l1.176,1.174l1.176,1.177l1.175,1.174l1.175,1.175l1.176,1.175v1.176l-1.176,5.876v3.526v1.175l0,0v3.526l0,0l-1.175,1.176
			l1.175,1.175l1.176-1.175h1.177h2.35l2.351,1.175L606.409,289.348L606.409,289.348z"/>
		<path fill="none" stroke="#CCCCCC" stroke-width="0.1" d="M609.936,323.436h-1.176l-2.35,1.176h-1.176l-3.524,1.175v1.176
			l-1.177-2.351l0,0v-2.352h-1.176v-1.176v-1.176l-1.175-1.176l0,0l0,0v-1.176l-1.175-2.351l-1.176-2.353l0,0v-1.174l-1.176-2.352
			l-1.174-2.351l-1.177-3.526l-1.176-2.351v-1.176v-1.176l-1.176-1.176h1.176l2.353,1.176h1.174l0,0l2.352-1.176l1.175,1.176h2.351
			l1.177-1.176h4.7l2.35,1.176h3.527h1.175h1.175h2.353h1.174l1.176,1.176h3.525v1.176l-1.176,1.176v3.526l0,0l-1.175,5.876v1.176
			l0,0l3.524,2.352v1.176l-2.352,1.175l-3.524,1.177l0,0l-1.174,1.174h-1.177l-1.176,1.177h-1.175h-1.175l-1.175,1.176
			L609.936,323.436z"/>
		<path fill="none" stroke="#CCCCCC" stroke-width="0.1" d="M561.743,312.855l-1.175-1.176v-2.351l-1.175-2.351l-1.177-4.701v-1.176
			v-1.176l-1.174-3.525v-1.176v-1.175l-1.175-2.352l2.349,1.177l2.352,1.175l2.35,1.175h2.353l4.701,1.176h1.177h2.347h1.178h2.352
			l0,0h2.35h1.177h1.173h1.177l2.349,1.174h2.352l0,0h1.176h1.175l1.176,1.176v1.176v1.176l1.176,2.351l1.177,3.526l1.174,2.351
			l1.176,2.352v1.174l0,0l1.176,2.353l1.175,2.351v1.176l0,0l0,0l1.175,1.176v1.176v1.176h1.176v2.352l0,0l1.177,2.351h-1.177
			l-3.525,1.177v1.174h-1.176h-1.176l-2.351,1.177l0,0l-2.352,1.176l-1.175,1.175h-1.176l0,0l-2.352,1.176l-1.175,1.176h-1.174
			l-3.527,1.176l-1.177,1.176l0,0l-2.35,1.175l0,0l-1.174,1.177h-2.351l0,0l-1.174-3.526l0,0l-1.177-1.175v-1.176l-1.176-2.352
			v-2.352l-1.173-2.352h-1.176v-2.352l-1.175-1.176l0,0v-1.174l-1.176-1.177v-2.351l-1.176-2.352L561.743,312.855z"/>
		<path fill="none" stroke="#CCCCCC" stroke-width="0.1" d="M557.042,318.732h-3.525l-2.353,1.176l-1.175,1.176h-2.349l0,0
			l-1.178,1.176h-1.175l0,0l-2.35,1.176h-1.175l0,0l-2.351,1.176l0,0l-2.354,1.175l-4.698,1.176l-2.353,1.176h-3.525l-2.351,1.175
			l-3.526,1.176h-1.178l-2.348,2.352h-1.176h-1.175l-1.174-1.175v-2.353l-1.177-1.174l-1.175-2.353l-1.174-2.351l-2.352-3.526
			l1.177-1.175l-1.177-1.176l0,0l-1.176-3.526l0,0l-1.174-5.876h2.351v4.7h2.352l3.526-1.174l2.35-3.525h1.176v2.351h1.174l0,0
			l3.528-1.176l1.175,1.176v1.175h1.176v-4.702h1.177h1.174l2.351-1.175l-1.175-3.526v-1.176v-2.352v-1.176h-3.526l-2.351,1.176
			h-3.528l-1.174-5.876l-2.351-3.526l1.175-1.175v-1.176h1.176v1.176h1.174l0,0h1.174h1.178l1.176,1.175v1.175l1.175,2.352
			l2.353-1.177h2.35l2.35-1.175h1.177l4.7-1.175l0,0l3.527-1.175l1.175-1.176l1.176-1.175l2.352-2.353l0,0l3.526,2.353l1.173,1.175
			l0,0l1.176,1.176l2.35,1.175l1.177,1.175l1.174,1.175h1.177l0,0l1.175,2.352v1.175v1.176l1.174,3.525v1.176v1.176l1.177,4.701
			l1.175,2.351v2.351l1.175,1.176l1.175,3.526h-2.35L557.042,318.732z"/>
		<path fill="none" stroke="#CCCCCC" stroke-width="0.1" d="M511.201,247.033l2.352-1.175l3.525-1.175v-1.176l4.702-2.35h2.351
			l-1.176-3.526l2.353-1.176l2.35,4.703v2.35l-1.176,1.176l1.176,10.578l3.526,19.982l-5.876-3.526l0,0h-2.353v-1.175l-5.877-3.527
			l-2.351-1.175l-3.526-1.176l-3.526-1.175l-4.7-1.175l-1.178-1.174l-2.351-1.177l-7.051-2.35l-3.526-1.176l-3.525-1.175
			l-1.179-1.175v-7.053l2.352-2.35l-3.527-4.703l-1.174-2.35l-1.175-3.526l-2.35-3.527l-1.176-2.351l-3.525,1.175h-1.176h-2.353
			v-1.175v-1.174l-1.174-1.176h-1.175V224.7v-2.35h-2.352h-5.877h-4.701v4.702v7.052v5.876v2.351v2.352l1.176,2.35v1.177
			l1.175,1.175l1.176,2.35l0,0h1.175h4.699v-2.35l2.353-1.175v2.351l4.702-1.175l-1.176-2.352l3.528,1.177l4.701,3.525l3.525,1.176
			l-3.525,1.175l0,0h-2.352l-1.176-1.175l-2.35,1.175l1.176,5.876l-4.702,1.177l-3.527,1.174l3.527,7.053h5.876v1.176h2.352h1.176
			v-1.176h1.173l4.701,5.877l-1.175,3.526l1.175-1.175v2.35l4.704-1.175h1.174v2.351h2.352v2.349l2.352,1.177h1.174l0,0v-1.177
			l-1.174-1.174h1.174l3.525,1.174l2.351-2.349l-2.351-2.351l2.351-1.175l-1.174-1.177h1.174l5.878-1.175l2.352-1.175l2.35-1.176
			l3.526,7.052h-2.35l-2.352,1.176l-2.349,1.175l2.349,3.526l3.526,3.526l2.351,3.526l1.174,5.876h3.528l2.351-1.176h3.526v1.176
			v2.352v1.176l1.175,3.526l-2.351,1.175h-1.174h-1.177v4.702h-1.176v-1.175l-1.175-1.176l-3.528,1.176l0,0h-1.174v-2.351h-1.176
			l-2.35,3.525l-3.526,1.174h-2.352v-4.7l-1.176-4.703l-1.174-2.351h-1.176l-2.352-5.877l0,0l-2.351-3.527v-2.35v-1.175
			l-1.175-1.176l-3.525,1.176l-7.055,1.175l-8.229,1.175l1.177,1.175l0,0l2.349,1.177l1.175,1.175l1.179,1.175v1.176l-2.354,1.174
			l-2.349,1.176l0,0v-1.176l0,0h-1.177l-2.349,1.176h-1.176l0,0l-1.176,1.176h-2.35l0,0v1.176h-1.177v1.176v2.35v1.176h-1.176l0,0
			l0,0l0,0l-1.174-2.352l-1.175-4.702l0,0l-1.177-1.176h1.177l-1.177-4.7l0,0l-1.175-3.526l0,0h1.175h1.177h1.175l1.174-2.352
			v-1.175h1.176l0,0h1.177h1.176l0,0l-4.702-5.877l1.174-1.175v-1.175l0,0v-1.177l0,0l0,0v-1.175h-1.174l0,0l1.174-1.175l0,0h-1.174
			l0,0l0,0l0,0l0,0v-1.176l0,0l0,0v-1.175l0,0l0,0h-1.175l0,0l0,0h-1.177l0,0v-1.175h-1.175l0,0l0,0l-1.178-1.176l0,0l-1.174-1.176
			l-1.175-2.35l-1.176-1.176l0,0l-1.175-1.175h-1.175l-4.701-4.701l0,0h-1.176v-1.176l0,0h1.176v-2.351v-1.175l-1.176-3.526h2.351
			l1.176-1.175l-1.176-4.702l-3.527,1.175v-4.701h-1.173l0,0h-2.355l0,0l0,0v1.175v1.175h1.176l0,0l1.179,1.176v1.175l-4.704-2.351
			v-2.35v-1.176l0,0l-1.174-2.35l2.35-1.176l0,0l1.173,1.176l2.355-1.176v-1.175l-1.179-1.175l-1.176-1.176l-1.173-1.175
			l-1.176-2.352l-2.35,2.352l-1.175-2.352l-1.178-2.35v-1.176l0,0V224.7l-1.174-2.35h-2.351l-1.177-4.702l-1.175-3.526l-2.35-5.877
			l1.176-1.176l-1.176-2.351h2.35l2.352-1.175v1.175h1.176l0,0h1.175v1.176h1.174h1.178v1.175l1.175-1.175v1.175l0,0l1.175-1.175
			l2.35,5.876l1.173-1.176h1.176l0,0l0,0l2.352-1.174l0,0l1.177-1.176l-1.177-2.351l2.353-1.176h2.351h1.175l1.176-1.175h1.175l0,0
			h1.175l0,0l1.176-1.175v1.175h1.175l1.174-1.175l0,0h1.178l0,0l0,0l1.175,1.175l0,0l-2.353,1.175v1.176v1.175l1.178,2.352l0,0
			l1.175,3.525l1.177,1.176l1.175,4.702l0,0v1.175l0,0l0,0v1.176l0,0l-1.175,1.176h1.175h2.35l0,0l1.177-1.176l0,0l1.176,1.176
			l1.174,2.35h1.176l2.352-2.35l0,0l1.173-1.176v1.176h1.177l0,0h1.175l0,0v1.174h1.174h1.175v-1.174l3.527-2.352l1.177,2.352l0,0
			h1.174l0,0h1.176l0,0l0,0l0,0l1.176-1.176l0,0l0,0l1.175-1.176l2.351,1.176l1.174-1.176l1.176,1.176l3.525-2.351l0,0l2.352,5.876
			l1.176,1.176h1.174v7.052l0,0h1.176v1.176h1.177v1.175h-1.177v3.527l3.526,2.351v3.526v2.351H511.201z"/>
		<path fill="none" stroke="#CCCCCC" stroke-width="0.1" d="M700.441,345.768L700.441,345.768l1.175,1.176h-5.876h-5.877l0,0
			l1.175,1.176l-1.175,2.352h-9.403l-1.178-2.352v-2.352v-1.176l-1.173-2.351v-1.175l0,0l-1.176-3.526l0,0v-1.177l0,0v-2.35h2.349
			h1.178h2.351h1.176h1.176l1.177-1.177l1.175,1.177l0,0v-1.177l1.174-2.351v-1.176l1.178-1.176v-1.176l1.175-3.525l1.177,1.176
			h1.174l0,0l3.526,2.351h1.175l1.178-1.176l2.35,1.176l1.177,1.176l-1.177,1.175l2.352,1.176l1.176,1.177l2.351,1.175l-1.177,1.176
			l-1.174,1.176v2.352l-2.351,2.352v1.176v1.175l-2.351,2.351v1.174H700.441z"/>
		<path fill="none" stroke="#CCCCCC" stroke-width="0.1" d="M676.936,334.014v2.352l0,0v1.176l0,0l1.174,3.525l0,0v1.176
			l1.174,2.351v1.177v2.351l1.178,2.352h-7.053l-3.525,1.177h-3.525h-1.177h-2.351h-1.178v-2.353v-1.176l-1.174-1.175v-1.176l0,0
			l-1.179-1.176v-2.352l-1.173-2.352l1.173-1.176v-2.351v-1.175l1.179-1.176v-2.352v-2.352v-1.176v-1.176v-1.176l0,0l1.174-1.176
			l0,0l0,0l4.703-2.351l1.176-1.176l0,0h3.525l0,0h1.176l2.352,2.351l1.176,1.176l0,0l3.523,3.527h1.178l1.176,2.35h1.174v1.177
			h1.176l2.354,1.175l-1.177,1.176h-1.177h-1.176h-2.35h-1.178h-2.348V334.014z"/>
		<path fill="none" stroke="#CCCCCC" stroke-width="0.1" d="M660.479,334.014l-1.179,1.176v1.176v2.351l-1.173,1.177l1.173,2.351
			v2.351l1.179,1.176l0,0v1.176l1.174,1.176v1.176v2.353l-1.174,1.174H659.3l-1.173,1.176h-1.176l-2.35,1.177h-1.177l-2.351,1.174
			h-2.352l-2.352,1.178l-2.354-1.178h-2.346v-1.174v-1.177l1.172-3.525l0,0v-4.702l0,0l1.174-1.176v-2.351v-2.351l1.178-3.526
			v-1.175l0,0v-1.176h1.176v-2.352l0,0h-2.354l-1.174-1.176l-1.172-1.176l-1.18-1.176l-1.176-1.176l0,0l-1.176-1.176l-1.176-1.176
			h1.176l1.176-1.176l1.176-2.351l2.352-2.351h1.174l1.178-1.176v1.176l3.525,2.351h1.176l0,0l2.352,1.177l0,0h1.176h1.178
			l1.174,1.174h1.174l4.701,1.176l0,0l-1.174,1.176l0,0v1.176v1.176v1.176v2.352v2.348H660.479z"/>
		<path fill="none" stroke="#CCCCCC" stroke-width="0.1" d="M605.233,418.643h-1.174l0,0l-1.176,1.176l-1.174,1.177l-2.353-3.525
			l1.176-1.176l-1.176-1.177l-1.175-1.175l0,0h-1.175l-2.352-3.525h-1.174l2.35-2.352l2.351-4.701l-1.175-1.176l2.35-1.177v1.177
			l3.526-2.352l1.176-1.176v1.176l3.526,1.175v1.177v1.176l1.175,1.176l2.352-4.702l1.175-3.527l0,0v-1.174v-1.176l1.175,1.176
			h1.175l-1.175,1.174h1.175v1.177h1.176l0,0l3.526,1.176l1.176,1.176l1.174,1.175l1.176,1.177l1.176,2.352l3.527,1.175
			l-1.176,2.352h-3.527v3.526h-3.524l-5.877,1.174v1.177l1.175,1.175l-2.35,1.177v2.35v1.176l-2.351-1.176v1.176l-2.351-1.176
			h-2.352V418.643z"/>
		<path fill="none" stroke="#CCCCCC" stroke-width="0.1" d="M601.709,424.52l-1.177-3.524l-3.525,3.524l1.175,1.176l0,0
			l-1.175,1.177l0,0h-1.176l0,0h-2.35v-1.177v-1.176l0,0l-1.177-1.176v-1.174l0,0l-2.352-2.353l-1.175-2.35v-1.176l-3.527,1.176
			v1.174l0,0l-2.349,1.176v-1.176l-2.35,1.176l-1.177,1.177l0,0v-2.353l-1.177-1.174l0,0h-1.173l0,0l-3.53,1.174l2.353,4.701l0,0
			l0,0h-1.174l-1.178,1.176l-4.7,2.353v-1.177h-1.173v-1.176l-1.176-2.35h-1.175l-2.353-3.527h1.176v-1.174v-3.526v-1.177v-1.174
			l0,0l0,0v-1.176v-2.353l0,0l1.176,1.177l0,0v1.176l0,0l0,0l0,0h1.175v-1.176l0,0l0,0l0,0v-1.177v-4.7l0,0l0,0l-1.175-1.177l0,0
			l-4.703-3.525v-1.176h-1.175l0,0v-1.177h-1.177l-1.174-3.524l0,0v-1.176v-3.526l0,0l0,0v-1.175l-1.175-1.176v-1.177l-3.528-8.228
			v-2.352l0,0l4.703-3.526l0,0l4.701,2.352h1.175v1.176h1.176l1.176,2.352v1.175l1.175,1.176l1.176,1.176l2.35,1.176l1.177,1.176
			l1.174,1.175l2.351,4.702l0,0l1.174,1.176l2.35,2.352l0,0l2.354-3.526l1.173-2.351l4.702,1.176l2.351,1.175l3.526,1.176h3.526
			l1.176,1.176l0,0l0,0l0,0l1.175,1.176h1.175l-1.175,1.176l3.527,4.701l1.174,1.176h1.176l-1.176,1.176l-3.526,2.351v-1.176
			l-2.35,1.176l1.175,1.177l-2.351,4.7l-2.35,2.353h1.174l2.352,3.524h1.175l0,0l1.175,1.176l1.176,1.177l-1.176,1.176l2.353,3.525
			l1.174-1.177l1.176-1.176l0,0h1.174h2.352l2.351,1.176v-1.176l2.351,1.176v-1.176v-2.35l2.35-1.177l-1.175-1.176v-1.176
			l5.878-1.174h3.524v-3.527h3.526l-1.176,3.527l-3.527,7.051l-2.35,7.053l-1.176,1.177l-2.351,7.052l-3.526,7.054l0,0v-2.351
			l-2.351-8.229h-3.526v-1.176v-1.176v-2.352l0,0l-1.176-3.524l0,0l-1.174,1.174h-1.176L601.709,424.52z"/>
		<path fill="none" stroke="#CCCCCC" stroke-width="0.1" d="M622.864,297.575v2.352h-3.525l-1.176-1.176h-1.174h-2.353h-1.175
			h-1.175h-3.527l-2.35-1.176v-1.174v-1.176v-1.175v-4.702v-7.053h2.35h1.176h1.176h2.35l1.175-2.351v-2.35v-1.177v-4.701v-2.351
			v-3.526l0,0v-1.176h1.176l1.177-1.175l2.35-2.35l1.177-1.177l1.174,1.177l0,0l1.176,1.174l1.175,1.175v1.175l3.528,2.351
			l1.175,2.351l2.35,1.176l1.179,2.35l1.172,1.176l1.177,1.175l-1.177,1.175l0,0v1.177h1.177l-1.177,1.175l-2.351,2.351h-1.174
			v1.175h-1.176v1.174l-2.353,1.177l-1.176,1.175v1.175l0,0l-1.176,4.701v2.352l-1.176,2.351L622.864,297.575L622.864,297.575z"/>
		<path fill="none" stroke="#CCCCCC" stroke-width="0.1" d="M680.46,254.086v2.35l-1.178,2.352l-1.173,4.701l0,0l-1.176,1.175
			l-2.352,1.176l-1.176,1.175l0,0h-3.525l0,0v-2.351h-2.352h-1.176l-3.525-1.175l0,0h-2.352H659.3l0,0l-3.522-1.175l0,0
			l-3.526-1.174l0,0l0,0l-1.175-1.177l0,0v-3.526l1.175-2.35v-2.352v-2.35v-2.352l4.701,2.352l0,0l0,0l3.526,2.35l0,0l2.352,1.176
			l0,0l0,0l0,0h1.175v1.175l1.177,1.175h1.176l2.352-1.175h1.175h1.175l1.176-1.175v-1.176l0,0l2.352-3.525v-1.177l1.176-1.175
			l1.176,1.175l2.349,2.352h1.178l1.177,1.175L680.46,254.086z"/>
	</g>
	<rect fill="none" stroke="" stroke-miterlimit="10" width="512.75" height="514.974"/><!-- stroke="#E92D00"  -->
</g>
</svg>
